<svg width="16" height="16" viewBox="0 0 16 16" fill="none" xmlns="http://www.w3.org/2000/svg">
<path d="M2.67409 1.43994H0.408337C0.229226 1.43994 0.0859375 1.58216 0.0859375 1.75994V4.00883C0.0859375 4.18661 0.229226 4.32883 0.408337 4.32883H2.67409C2.8532 4.32883 2.99649 4.18661 2.99649 4.00883V1.75994C2.99649 1.59105 2.8532 1.43994 2.67409 1.43994ZM2.67409 4.66661H0.408337C0.229226 4.66661 0.0859375 4.80883 0.0859375 4.98661V7.2355C0.0859375 7.41327 0.229226 7.5555 0.408337 7.5555H2.67409C2.8532 7.5555 2.99649 7.41327 2.99649 7.2355V4.98661C2.99649 4.80883 2.8532 4.66661 2.67409 4.66661ZM2.67409 7.88439H0.408337C0.229226 7.88439 0.0859375 8.02661 0.0859375 8.20438V10.4533C0.0859375 10.6311 0.229226 10.7733 0.408337 10.7733H2.67409C2.8532 10.7733 2.99649 10.6311 2.99649 10.4533V8.20438C2.99649 8.02661 2.8532 7.88439 2.67409 7.88439ZM2.67409 11.1111H0.408337C0.229226 11.1111 0.0859375 11.2533 0.0859375 11.4311V13.6799C0.0859375 13.8577 0.229226 13.9999 0.408337 13.9999H2.67409C2.8532 13.9999 2.99649 13.8577 2.99649 13.6799V11.4311C2.99649 11.2533 2.8532 11.1111 2.67409 11.1111Z" fill="#FF6000"/>
<path d="M12.4085 4.66675H10.1427C9.9636 4.66675 9.82031 4.80897 9.82031 4.98675V7.23564C9.82031 7.41341 9.9636 7.55564 10.1427 7.55564H12.4085C12.5876 7.55564 12.7309 7.41341 12.7309 7.23564V4.98675C12.7309 4.80897 12.5876 4.66675 12.4085 4.66675ZM12.4085 7.88453H10.1427C9.9636 7.88453 9.82031 8.02675 9.82031 8.20452V10.4534C9.82031 10.6312 9.9636 10.7734 10.1427 10.7734H12.4085C12.5876 10.7734 12.7309 10.6312 12.7309 10.4534V8.20452C12.7309 8.02675 12.5876 7.88453 12.4085 7.88453ZM12.4085 11.1112H10.1427C9.9636 11.1112 9.82031 11.2534 9.82031 11.4312V13.6801C9.82031 13.8579 9.9636 14.0001 10.1427 14.0001H12.4085C12.5876 14.0001 12.7309 13.8579 12.7309 13.6801V11.4312C12.7309 11.2534 12.5876 11.1112 12.4085 11.1112Z" fill="#00AA40"/>
<path d="M15.6604 4.66661H13.3947C13.2156 4.66661 13.0723 4.80883 13.0723 4.98661V7.2355C13.0723 7.41327 13.2156 7.5555 13.3947 7.5555H15.6604C15.8395 7.5555 15.9828 7.41327 15.9828 7.2355V4.98661C15.9828 4.80883 15.8306 4.66661 15.6604 4.66661ZM15.6604 1.43994H13.3947C13.2156 1.43994 13.0723 1.58216 13.0723 1.75994V4.00883C13.0723 4.18661 13.2156 4.32883 13.3947 4.32883H15.6604C15.8395 4.32883 15.9828 4.18661 15.9828 4.00883V1.75994C15.9828 1.59105 15.8306 1.43994 15.6604 1.43994ZM15.6604 7.88439H13.3947C13.2156 7.88439 13.0723 8.02661 13.0723 8.20438V10.4533C13.0723 10.6311 13.2156 10.7733 13.3947 10.7733H15.6604C15.8395 10.7733 15.9828 10.6311 15.9828 10.4533V8.20438C15.9828 8.02661 15.8306 7.88439 15.6604 7.88439ZM15.6604 11.1111H13.3947C13.2156 11.1111 13.0723 11.2533 13.0723 11.4311V13.6799C13.0723 13.8577 13.2156 13.9999 13.3947 13.9999H15.6604C15.8395 13.9999 15.9828 13.8577 15.9828 13.6799V11.4311C15.9828 11.2533 15.8306 11.1111 15.6604 11.1111Z" fill="#F1DB01"/>
<path d="M5.91628 4.6665H3.65052C3.47141 4.6665 3.32812 4.80873 3.32812 4.9865V7.23539C3.32812 7.41317 3.47141 7.55539 3.65052 7.55539H5.91628C6.09539 7.55539 6.23868 7.41317 6.23868 7.23539V4.9865C6.23868 4.80873 6.09539 4.6665 5.91628 4.6665ZM5.91628 7.88428H3.65052C3.47141 7.88428 3.32812 8.0265 3.32812 8.20428V10.4532C3.32812 10.6309 3.47141 10.7732 3.65052 10.7732H5.91628C6.09539 10.7732 6.23868 10.6309 6.23868 10.4532V8.20428C6.23868 8.0265 6.09539 7.88428 5.91628 7.88428ZM5.91628 11.1109H3.65052C3.47141 11.1109 3.32812 11.2532 3.32812 11.4309V13.6798C3.32812 13.8576 3.47141 13.9998 3.65052 13.9998H5.91628C6.09539 13.9998 6.23868 13.8576 6.23868 13.6798V11.4309C6.23868 11.2532 6.09539 11.1109 5.91628 11.1109ZM9.16714 11.1109H6.90139C6.72228 11.1109 6.57899 11.2532 6.57899 11.4309V13.6798C6.57899 13.8576 6.72228 13.9998 6.90139 13.9998H9.16714C9.34625 13.9998 9.48954 13.8576 9.48954 13.6798V11.4309C9.48954 11.2532 9.34625 11.1109 9.16714 11.1109Z" fill="#00A0E2"/>
<path d="M2.55766 1.59106H0.515791H0.506836L0.632213 1.75995C0.641169 1.75995 0.641169 1.75995 0.650125 1.75995H2.42332C2.56661 1.75995 2.67408 1.87551 2.67408 2.00884V3.76884C2.67408 3.77773 2.67408 3.77773 2.67408 3.78662L2.84423 3.91106V3.90218V1.87551C2.85319 1.71551 2.71886 1.59106 2.55766 1.59106ZM2.55766 4.80884H0.515791H0.506836L0.632213 4.97773C0.641169 4.97773 0.641169 4.97773 0.650125 4.97773H2.42332C2.56661 4.97773 2.67408 5.09329 2.67408 5.22662V6.98662C2.67408 6.99551 2.67408 6.99551 2.67408 7.0044L2.84423 7.12884V7.11995V5.09329C2.85319 4.94218 2.71886 4.80884 2.55766 4.80884ZM2.55766 8.02662H0.515791H0.506836L0.632213 8.19551C0.641169 8.19551 0.641169 8.19551 0.650125 8.19551H2.42332C2.56661 8.19551 2.67408 8.31106 2.67408 8.4444V10.2044C2.67408 10.2133 2.67408 10.2133 2.67408 10.2222L2.84423 10.3466V10.3377V8.31106C2.85319 8.15995 2.71886 8.02662 2.55766 8.02662ZM2.55766 11.2533H0.515791H0.506836L0.632213 11.4222C0.641169 11.4222 0.641169 11.4222 0.650125 11.4222H2.42332C2.56661 11.4222 2.67408 11.5377 2.67408 11.6711V13.4311C2.67408 13.44 2.67408 13.44 2.67408 13.4488L2.84423 13.5733V13.5644V11.5377C2.85319 11.3777 2.71886 11.2533 2.55766 11.2533ZM5.80852 4.80884H3.76665H3.7577L3.88308 4.97773C3.89203 4.97773 3.89203 4.97773 3.90099 4.97773H5.67419C5.81747 4.97773 5.92494 5.09329 5.92494 5.22662V6.98662C5.92494 6.99551 5.92494 6.99551 5.92494 7.0044L6.0951 7.12884V7.11995V5.09329C6.0951 4.94218 5.96972 4.80884 5.80852 4.80884ZM5.80852 8.02662H3.76665H3.7577L3.88308 8.19551C3.89203 8.19551 3.89203 8.19551 3.90099 8.19551H5.67419C5.81747 8.19551 5.92494 8.31106 5.92494 8.4444V10.2044C5.92494 10.2133 5.92494 10.2133 5.92494 10.2222L6.0951 10.3466V10.3377V8.31106C6.0951 8.15995 5.96972 8.02662 5.80852 8.02662ZM5.80852 11.2533H3.76665H3.7577L3.88308 11.4222C3.89203 11.4222 3.89203 11.4222 3.90099 11.4222H5.67419C5.81747 11.4222 5.92494 11.5377 5.92494 11.6711V13.4311C5.92494 13.44 5.92494 13.44 5.92494 13.4488L6.0951 13.5733V13.5644V11.5377C6.0951 11.3777 5.96972 11.2533 5.80852 11.2533ZM12.3013 4.80884H10.2594H10.2505L10.3758 4.97773C10.3848 4.97773 10.3848 4.97773 10.3938 4.97773H12.167C12.3102 4.97773 12.4177 5.09329 12.4177 5.22662V6.98662C12.4177 6.99551 12.4177 6.99551 12.4177 7.0044L12.5879 7.12884V7.11995V5.09329C12.5879 4.94218 12.4535 4.80884 12.3013 4.80884ZM12.3013 8.02662H10.2594H10.2505L10.3758 8.19551C10.3848 8.19551 10.3848 8.19551 10.3938 8.19551H12.167C12.3102 8.19551 12.4177 8.31106 12.4177 8.4444V10.2044C12.4177 10.2133 12.4177 10.2133 12.4177 10.2222L12.5879 10.3466V10.3377V8.31106C12.5879 8.15995 12.4535 8.02662 12.3013 8.02662ZM12.3013 11.2533H10.2594H10.2505L10.3758 11.4222C10.3848 11.4222 10.3848 11.4222 10.3938 11.4222H12.167C12.3102 11.4222 12.4177 11.5377 12.4177 11.6711V13.4311C12.4177 13.44 12.4177 13.44 12.4177 13.4488L12.5879 13.5733V13.5644V11.5377C12.5879 11.3777 12.4535 11.2533 12.3013 11.2533ZM15.5432 4.80884H13.5013H13.4924L13.6178 4.97773C13.6267 4.97773 13.6267 4.97773 13.6357 4.97773H15.4089C15.5522 4.97773 15.6596 5.09329 15.6596 5.22662V6.98662C15.6596 6.99551 15.6596 6.99551 15.6596 7.0044L15.8298 7.12884V7.11995V5.09329C15.8298 4.94218 15.7044 4.80884 15.5432 4.80884ZM15.5432 1.59106H13.5013H13.4924L13.6178 1.75995C13.6267 1.75995 13.6267 1.75995 13.6357 1.75995H15.4089C15.5522 1.75995 15.6596 1.87551 15.6596 2.00884V3.76884C15.6596 3.77773 15.6596 3.77773 15.6596 3.78662L15.8298 3.91106V3.90218V1.87551C15.8298 1.71551 15.7044 1.59106 15.5432 1.59106ZM15.5432 8.02662H13.5013H13.4924L13.6178 8.19551C13.6267 8.19551 13.6267 8.19551 13.6357 8.19551H15.4089C15.5522 8.19551 15.6596 8.31106 15.6596 8.4444V10.2044C15.6596 10.2133 15.6596 10.2133 15.6596 10.2222L15.8298 10.3466V10.3377V8.31106C15.8298 8.15995 15.7044 8.02662 15.5432 8.02662ZM15.5432 11.2533H13.5013H13.4924L13.6178 11.4222C13.6267 11.4222 13.6267 11.4222 13.6357 11.4222H15.4089C15.5522 11.4222 15.6596 11.5377 15.6596 11.6711V13.4311C15.6596 13.44 15.6596 13.44 15.6596 13.4488L15.8298 13.5733V13.5644V11.5377C15.8298 11.3777 15.7044 11.2533 15.5432 11.2533ZM9.05043 11.2533H7.00856H6.99961L7.12498 11.4222C7.13394 11.4222 7.13394 11.4222 7.1429 11.4222H8.91609C9.05938 11.4222 9.16685 11.5377 9.16685 11.6711V13.4311C9.16685 13.44 9.16685 13.44 9.16685 13.4488L9.337 13.5733V13.5644V11.5377C9.34596 11.3777 9.21163 11.2533 9.05043 11.2533Z" fill="#131313"/>
</svg>
