<svg width="145" height="40" viewBox="0 0 145 40" fill="none" xmlns="http://www.w3.org/2000/svg">
<path d="M8.24252 0H1.02675C0.456333 0 0 0.452937 0 1.01911V8.18117C0 8.74734 0.456333 9.20028 1.02675 9.20028H8.24252C8.81294 9.20028 9.26927 8.74734 9.26927 8.18117V1.01911C9.26927 0.481245 8.81294 0 8.24252 0ZM8.24252 10.276H1.02675C0.456333 10.276 0 10.7289 0 11.2951V18.4572C0 19.0234 0.456333 19.4763 1.02675 19.4763H8.24252C8.81294 19.4763 9.26927 19.0234 9.26927 18.4572V11.2951C9.26927 10.7289 8.81294 10.276 8.24252 10.276ZM8.24252 20.5237H1.02675C0.456333 20.5237 0 20.9766 0 21.5428V28.7049C0 29.2711 0.456333 29.724 1.02675 29.724H8.24252C8.81294 29.724 9.26927 29.2711 9.26927 28.7049V21.5428C9.26927 20.9766 8.81294 20.5237 8.24252 20.5237ZM8.24252 30.7997H1.02675C0.456333 30.7997 0 31.2526 0 31.8188V38.9809C0 39.5471 0.456333 40 1.02675 40H8.24252C8.81294 40 9.26927 39.5471 9.26927 38.9809V31.8188C9.26927 31.2526 8.81294 30.7997 8.24252 30.7997Z" fill="#FF6000"/>
<path d="M39.2447 10.276H32.0289C31.4585 10.276 31.0022 10.7289 31.0022 11.2951V18.4572C31.0022 19.0233 31.4585 19.4763 32.0289 19.4763H39.2447C39.8151 19.4763 40.2715 19.0233 40.2715 18.4572V11.2951C40.2715 10.7289 39.8151 10.276 39.2447 10.276ZM39.2447 20.5237H32.0289C31.4585 20.5237 31.0022 20.9766 31.0022 21.5428V28.7049C31.0022 29.271 31.4585 29.724 32.0289 29.724H39.2447C39.8151 29.724 40.2715 29.271 40.2715 28.7049V21.5428C40.2715 20.9766 39.8151 20.5237 39.2447 20.5237ZM39.2447 30.7997H32.0289C31.4585 30.7997 31.0022 31.2526 31.0022 31.8188V38.9809C31.0022 39.5471 31.4585 40 32.0289 40H39.2447C39.8151 40 40.2715 39.5471 40.2715 38.9809V31.8188C40.2715 31.2526 39.8151 30.7997 39.2447 30.7997Z" fill="#00AA40"/>
<path d="M49.5978 10.276H42.382C41.8116 10.276 41.3552 10.7289 41.3552 11.2951V18.4572C41.3552 19.0234 41.8116 19.4763 42.382 19.4763H49.5978C50.1682 19.4763 50.6245 19.0234 50.6245 18.4572V11.2951C50.6245 10.7289 50.1396 10.276 49.5978 10.276ZM49.5978 0H42.382C41.8116 0 41.3552 0.452937 41.3552 1.01911V8.18117C41.3552 8.74734 41.8116 9.20028 42.382 9.20028H49.5978C50.1682 9.20028 50.6245 8.74734 50.6245 8.18117V1.01911C50.6245 0.481245 50.1396 0 49.5978 0ZM49.5978 20.5237H42.382C41.8116 20.5237 41.3552 20.9766 41.3552 21.5428V28.7049C41.3552 29.2711 41.8116 29.724 42.382 29.724H49.5978C50.1682 29.724 50.6245 29.2711 50.6245 28.7049V21.5428C50.6245 20.9766 50.1396 20.5237 49.5978 20.5237ZM49.5978 30.7997H42.382C41.8116 30.7997 41.3552 31.2526 41.3552 31.8188V38.9809C41.3552 39.5471 41.8116 40 42.382 40H49.5978C50.1682 40 50.6245 39.5471 50.6245 38.9809V31.8188C50.6245 31.2526 50.1396 30.7997 49.5978 30.7997Z" fill="#F1DB01"/>
<path d="M18.567 10.276H11.3512C10.7808 10.276 10.3245 10.7289 10.3245 11.2951V18.4572C10.3245 19.0233 10.7808 19.4763 11.3512 19.4763H18.567C19.1374 19.4763 19.5937 19.0233 19.5937 18.4572V11.2951C19.5937 10.7289 19.1374 10.276 18.567 10.276ZM18.567 20.5237H11.3512C10.7808 20.5237 10.3245 20.9766 10.3245 21.5428V28.7049C10.3245 29.271 10.7808 29.724 11.3512 29.724H18.567C19.1374 29.724 19.5937 29.271 19.5937 28.7049V21.5428C19.5937 20.9766 19.1374 20.5237 18.567 20.5237ZM18.567 30.7997H11.3512C10.7808 30.7997 10.3245 31.2526 10.3245 31.8188V38.9809C10.3245 39.5471 10.7808 40 11.3512 40H18.567C19.1374 40 19.5937 39.5471 19.5937 38.9809V31.8188C19.5937 31.2526 19.1374 30.7997 18.567 30.7997ZM28.9201 30.7997H21.7043C21.1339 30.7997 20.6775 31.2526 20.6775 31.8188V38.9809C20.6775 39.5471 21.1339 40 21.7043 40H28.9201C29.4905 40 29.9468 39.5471 29.9468 38.9809V31.8188C29.9468 31.2526 29.4905 30.7997 28.9201 30.7997Z" fill="#00A0E2"/>
<path d="M7.87185 0.481262H1.3691H1.34058L1.73987 1.01913C1.76839 1.01913 1.76839 1.01913 1.79691 1.01913H7.44404C7.90037 1.01913 8.24262 1.38714 8.24262 1.81176V7.41686C8.24262 7.44517 8.24262 7.44517 8.24262 7.47348L8.78452 7.8698V7.84149V1.38714C8.81304 0.877581 8.38523 0.481262 7.87185 0.481262ZM7.87185 10.729H1.3691H1.34058L1.73987 11.2668C1.76839 11.2668 1.76839 11.2668 1.79691 11.2668H7.44404C7.90037 11.2668 8.24262 11.6348 8.24262 12.0595V17.6646C8.24262 17.6929 8.24262 17.6929 8.24262 17.7212L8.78452 18.1175V18.0892V11.6348C8.81304 11.1536 8.38523 10.729 7.87185 10.729ZM7.87185 20.9767H1.3691H1.34058L1.73987 21.5145C1.76839 21.5145 1.76839 21.5145 1.79691 21.5145H7.44404C7.90037 21.5145 8.24262 21.8825 8.24262 22.3072V27.9123C8.24262 27.9406 8.24262 27.9406 8.24262 27.9689L8.78452 28.3652V28.3369V21.8825C8.81304 21.4013 8.38523 20.9767 7.87185 20.9767ZM7.87185 31.2527H1.3691H1.34058L1.73987 31.7905C1.76839 31.7905 1.76839 31.7905 1.79691 31.7905H7.44404C7.90037 31.7905 8.24262 32.1585 8.24262 32.5832V38.1883C8.24262 38.2166 8.24262 38.2166 8.24262 38.2449L8.78452 38.6412V38.6129V32.1585C8.81304 31.649 8.38523 31.2527 7.87185 31.2527ZM18.2249 10.729H11.7222H11.6936L12.0929 11.2668C12.1215 11.2668 12.1215 11.2668 12.15 11.2668H17.7971C18.2534 11.2668 18.5957 11.6348 18.5957 12.0595V17.6646C18.5957 17.6929 18.5957 17.6929 18.5957 17.7212L19.1376 18.1175V18.0892V11.6348C19.1376 11.1536 18.7383 10.729 18.2249 10.729ZM18.2249 20.9767H11.7222H11.6936L12.0929 21.5145C12.1215 21.5145 12.1215 21.5145 12.15 21.5145H17.7971C18.2534 21.5145 18.5957 21.8825 18.5957 22.3072V27.9123C18.5957 27.9406 18.5957 27.9406 18.5957 27.9689L19.1376 28.3652V28.3369V21.8825C19.1376 21.4013 18.7383 20.9767 18.2249 20.9767ZM18.2249 31.2527H11.7222H11.6936L12.0929 31.7905C12.1215 31.7905 12.1215 31.7905 12.15 31.7905H17.7971C18.2534 31.7905 18.5957 32.1585 18.5957 32.5832V38.1883C18.5957 38.2166 18.5957 38.2166 18.5957 38.2449L19.1376 38.6412V38.6129V32.1585C19.1376 31.649 18.7383 31.2527 18.2249 31.2527ZM38.9025 10.729H32.3998H32.3713L32.7705 11.2668C32.7991 11.2668 32.7991 11.2668 32.8276 11.2668H38.4747C38.9311 11.2668 39.2733 11.6348 39.2733 12.0595V17.6646C39.2733 17.6929 39.2733 17.6929 39.2733 17.7212L39.8152 18.1175V18.0892V11.6348C39.8152 11.1536 39.3874 10.729 38.9025 10.729ZM38.9025 20.9767H32.3998H32.3713L32.7705 21.5145C32.7991 21.5145 32.7991 21.5145 32.8276 21.5145H38.4747C38.9311 21.5145 39.2733 21.8825 39.2733 22.3072V27.9123C39.2733 27.9406 39.2733 27.9406 39.2733 27.9689L39.8152 28.3652V28.3369V21.8825C39.8152 21.4013 39.3874 20.9767 38.9025 20.9767ZM38.9025 31.2527H32.3998H32.3713L32.7705 31.7905C32.7991 31.7905 32.7991 31.7905 32.8276 31.7905H38.4747C38.9311 31.7905 39.2733 32.1585 39.2733 32.5832V38.1883C39.2733 38.2166 39.2733 38.2166 39.2733 38.2449L39.8152 38.6412V38.6129V32.1585C39.8152 31.649 39.3874 31.2527 38.9025 31.2527ZM49.2271 10.729H42.7243H42.6958L43.0951 11.2668C43.1236 11.2668 43.1236 11.2668 43.1521 11.2668H48.7993C49.2556 11.2668 49.5979 11.6348 49.5979 12.0595V17.6646C49.5979 17.6929 49.5979 17.6929 49.5979 17.7212L50.1397 18.1175V18.0892V11.6348C50.1397 11.1536 49.7405 10.729 49.2271 10.729ZM49.2271 0.481262H42.7243H42.6958L43.0951 1.01913C43.1236 1.01913 43.1236 1.01913 43.1521 1.01913H48.7993C49.2556 1.01913 49.5979 1.38714 49.5979 1.81176V7.41686C49.5979 7.44517 49.5979 7.44517 49.5979 7.47348L50.1397 7.8698V7.84149V1.38714C50.1397 0.877581 49.7405 0.481262 49.2271 0.481262ZM49.2271 20.9767H42.7243H42.6958L43.0951 21.5145C43.1236 21.5145 43.1236 21.5145 43.1521 21.5145H48.7993C49.2556 21.5145 49.5979 21.8825 49.5979 22.3072V27.9123C49.5979 27.9406 49.5979 27.9406 49.5979 27.9689L50.1397 28.3652V28.3369V21.8825C50.1397 21.4013 49.7405 20.9767 49.2271 20.9767ZM49.2271 31.2527H42.7243H42.6958L43.0951 31.7905C43.1236 31.7905 43.1236 31.7905 43.1521 31.7905H48.7993C49.2556 31.7905 49.5979 32.1585 49.5979 32.5832V38.1883C49.5979 38.2166 49.5979 38.2166 49.5979 38.2449L50.1397 38.6412V38.6129V32.1585C50.1397 31.649 49.7405 31.2527 49.2271 31.2527ZM28.5495 31.2527H22.0467H22.0182L22.4175 31.7905C22.446 31.7905 22.446 31.7905 22.4745 31.7905H28.1217C28.578 31.7905 28.9202 32.1585 28.9202 32.5832V38.1883C28.9202 38.2166 28.9202 38.2166 28.9202 38.2449L29.4621 38.6412V38.6129V32.1585C29.4907 31.649 29.0628 31.2527 28.5495 31.2527Z" fill="white"/>
<path d="M74.2969 3.90654H62.3752C62.1755 3.90654 62.0044 4.0764 62.0044 4.27456V7.21865C62.0044 7.41681 62.1755 7.58666 62.3752 7.58666H66.3396V27.4027C66.3396 27.6291 66.5107 27.799 66.7389 27.799H69.9902C70.2184 27.799 70.3895 27.6291 70.3895 27.4027V7.58666H74.3254C74.525 7.58666 74.6962 7.41681 74.6962 7.21865V4.27456C74.6677 4.0764 74.4965 3.90654 74.2969 3.90654ZM88.3291 3.90654H77.7194C77.5197 3.90654 77.3486 4.0764 77.3486 4.27456V27.431C77.3486 27.6291 77.5197 27.799 77.7194 27.799H88.3291C88.5288 27.799 88.6999 27.6291 88.6999 27.431V24.4869C88.6999 24.2887 88.5288 24.1189 88.3291 24.1189H81.3415V17.6928H88.3291C88.5288 17.6928 88.6999 17.523 88.6999 17.3248V14.3807C88.6999 14.1826 88.5288 14.0127 88.3291 14.0127H81.3415V7.58666H88.3291C88.5288 7.58666 88.6999 7.41681 88.6999 7.21865V4.27456C88.6999 4.0764 88.5288 3.90654 88.3291 3.90654ZM103.673 3.90654H91.7516C91.552 3.90654 91.3809 4.0764 91.3809 4.27456V7.21865C91.3809 7.41681 91.552 7.58666 91.7516 7.58666H95.716V27.4027C95.716 27.6291 95.8872 27.799 96.1153 27.799H99.3667C99.5949 27.799 99.766 27.6291 99.766 27.4027V7.58666H103.702C103.902 7.58666 104.073 7.41681 104.073 7.21865V4.27456C104.044 4.0764 103.873 3.90654 103.673 3.90654ZM143.603 13.9844H136.872C136.529 13.9844 136.244 13.7013 136.244 13.3616V8.18114C136.244 8.09621 136.244 8.03959 136.273 7.98298C136.358 7.75651 136.586 7.61496 136.843 7.61496L144.544 7.58666C144.743 7.58666 144.914 7.41681 144.914 7.21865V4.24625C144.914 4.04809 144.743 3.87823 144.544 3.87823H133.592C133.021 3.87823 132.536 4.21794 132.337 4.72749C132.251 4.89734 132.223 5.0672 132.223 5.26535V16.334C132.223 17.07 132.822 17.6928 133.592 17.6928H140.323C140.665 17.6928 140.95 17.9759 140.95 18.3156V23.4961C140.95 23.581 140.95 23.6376 140.922 23.6942C140.836 23.9207 140.608 24.0622 140.351 24.0622L132.651 24.0905C132.451 24.0905 132.28 24.2604 132.28 24.4586V27.4027C132.28 27.6008 132.451 27.7707 132.651 27.7707H143.603C144.173 27.7707 144.658 27.431 144.857 26.9214C144.943 26.7516 144.972 26.5817 144.972 26.3835V15.3432C144.972 14.5789 144.344 13.9844 143.603 13.9844ZM118.761 3.90654H107.124C106.896 3.90654 106.725 4.07639 106.725 4.30286V27.4027C106.725 27.6291 106.896 27.799 107.124 27.799H110.376C110.604 27.799 110.775 27.6291 110.775 27.4027V17.6928H111.517L115.738 26.61C116.051 27.2611 116.508 27.799 116.736 27.799H119.987C120.187 27.799 120.13 27.346 119.873 26.7516L115.823 17.9476C115.795 17.8627 115.738 17.7777 115.709 17.6928H118.789C119.531 17.6928 120.158 17.0983 120.158 16.334V5.26535C120.13 4.52933 119.531 3.90654 118.761 3.90654ZM116.451 13.4182C116.451 13.7579 116.165 14.041 115.823 14.041H110.804V7.55835H115.823C116.165 7.55835 116.451 7.84143 116.451 8.18114V13.4182ZM127.802 3.90654H124.551C124.322 3.90654 124.151 4.07639 124.151 4.30286V27.4027C124.151 27.6291 124.322 27.799 124.551 27.799H127.802C128.03 27.799 128.201 27.6291 128.201 27.4027V4.30286C128.201 4.1047 128.03 3.90654 127.802 3.90654Z" fill="white"/>
<path d="M63.1738 31.649C63.0882 31.7056 63.0311 31.7905 63.0026 31.8754L62.9171 31.5641H62.0044V36.2067H63.0311V32.6964C63.0311 32.5832 63.0882 32.5265 63.2023 32.5265H64.0579V31.5641H63.459C63.3449 31.5641 63.2593 31.5924 63.1738 31.649ZM68.5642 31.5641H66.6533C66.4536 31.5641 66.2825 31.6207 66.1684 31.7622C66.0258 31.9038 65.9688 32.0453 65.9688 32.2435V35.4989C65.9688 35.6971 66.0258 35.8669 66.1684 35.9802C66.311 36.1217 66.4536 36.1783 66.6533 36.1783H69.2487V35.2159H67.1667C67.0526 35.2159 66.9955 35.1592 66.9955 35.046V34.3383H68.5642C68.7638 34.3383 68.935 34.2817 69.049 34.1401C69.1916 33.9986 69.2487 33.857 69.2487 33.6589V32.2435C69.2487 32.0453 69.1916 31.8754 69.049 31.7622C68.935 31.6207 68.7638 31.5641 68.5642 31.5641ZM68.2219 33.2343C68.2219 33.3475 68.1649 33.4041 68.0508 33.4041H67.0241V32.6964C67.0241 32.5832 67.0811 32.5265 67.1952 32.5265H68.0508C68.1649 32.5265 68.2219 32.5832 68.2219 32.6964V33.2343ZM73.755 31.5641H71.3307V32.5265H73.2416C73.3557 32.5265 73.4127 32.5832 73.4127 32.6964V33.4041H71.8441C71.6444 33.4041 71.4733 33.4607 71.3592 33.6023C71.2166 33.7438 71.1596 33.8854 71.1596 34.0835V35.4989C71.1596 35.6971 71.2166 35.8669 71.3592 35.9802C71.5018 36.1217 71.6444 36.1783 71.8441 36.1783H72.9849C73.099 36.1783 73.1846 36.15 73.2701 36.0934C73.3557 36.0368 73.4127 35.9519 73.4413 35.867L73.5268 36.1783H74.4395V32.2151C74.4395 32.017 74.3824 31.8471 74.2398 31.7339C74.1258 31.6207 73.9546 31.5641 73.755 31.5641ZM73.4127 35.0743C73.4127 35.1875 73.3557 35.2442 73.2416 35.2442H72.386C72.2719 35.2442 72.2149 35.1875 72.2149 35.0743V34.5364C72.2149 34.4232 72.2719 34.3666 72.386 34.3666H73.4127V35.0743ZM77.7479 35.0743V30.0071H76.7212V35.4989C76.7212 35.6971 76.7782 35.8669 76.9208 35.9802C77.0634 36.1217 77.206 36.1783 77.4057 36.1783H78.0902V35.2159H77.919C77.8049 35.2442 77.7479 35.1875 77.7479 35.0743ZM86.2186 31.5641H84.3077C84.108 31.5641 83.9369 31.6207 83.8228 31.7622C83.6802 31.9038 83.6232 32.0453 83.6232 32.2435V35.4989C83.6232 35.6971 83.6802 35.8669 83.8228 35.9802C83.9654 36.1217 84.108 36.1783 84.3077 36.1783H86.9031V35.2159H84.8211C84.707 35.2159 84.6499 35.1592 84.6499 35.046V34.3383H86.2186C86.4182 34.3383 86.5894 34.2817 86.7034 34.1401C86.8461 33.9986 86.9031 33.857 86.9031 33.6589V32.2435C86.9031 32.0453 86.8461 31.8754 86.7034 31.7622C86.5894 31.6207 86.4182 31.5641 86.2186 31.5641ZM85.8763 33.2343C85.8763 33.3475 85.8193 33.4041 85.7052 33.4041H84.6785V32.6964C84.6785 32.5832 84.7355 32.5265 84.8496 32.5265H85.7052C85.8193 32.5265 85.8763 32.5832 85.8763 32.6964V33.2343ZM91.2383 33.4041H90.0119C89.8978 33.4041 89.8407 33.3475 89.8407 33.2343V32.6964C89.8407 32.5832 89.8978 32.5265 90.0119 32.5265H91.7516V31.5641H89.4985C89.2988 31.5641 89.1277 31.6207 89.0136 31.7622C88.871 31.9038 88.814 32.0453 88.814 32.2435V33.6589C88.814 33.857 88.871 34.0269 89.0136 34.1401C89.1562 34.2817 89.2988 34.3383 89.4985 34.3383H90.7249C90.839 34.3383 90.896 34.3949 90.896 34.5081V35.046C90.896 35.1026 90.8675 35.1309 90.839 35.1592C90.8105 35.1875 90.7534 35.2159 90.7249 35.2159H88.814V36.1783H91.2383C91.4379 36.1783 91.609 36.1217 91.7231 35.9802C91.8657 35.8386 91.9228 35.6971 91.9228 35.4989V34.0835C91.9228 33.8854 91.8657 33.7155 91.7231 33.6023C91.609 33.4607 91.4379 33.4041 91.2383 33.4041ZM95.4023 30.5449L94.3756 30.9413V31.5924H93.8622V32.5549H94.3756V35.5556C94.3756 35.7537 94.4326 35.9236 94.5752 36.0368C94.7178 36.1783 94.8604 36.235 95.0601 36.235H96.0868V35.2725H95.5734C95.4593 35.2725 95.4023 35.2159 95.4023 35.1026V32.5265H96.0868V31.5641H95.4023V30.5449ZM100.593 31.5641H98.1688V32.5265H100.08C100.194 32.5265 100.251 32.5832 100.251 32.6964V33.4041H98.6822C98.4826 33.4041 98.3114 33.4607 98.1973 33.6023C98.0547 33.7438 97.9977 33.8854 97.9977 34.0835V35.4989C97.9977 35.6971 98.0547 35.8669 98.1973 35.9802C98.34 36.1217 98.4826 36.1783 98.6822 36.1783H99.823C99.9371 36.1783 100.023 36.15 100.108 36.0934C100.194 36.0368 100.251 35.9519 100.279 35.867L100.365 36.1783H101.278V32.2151C101.278 32.017 101.221 31.8471 101.078 31.7339C100.964 31.6207 100.793 31.5641 100.593 31.5641ZM100.251 35.0743C100.251 35.1875 100.194 35.2442 100.08 35.2442H99.2241C99.11 35.2442 99.053 35.1875 99.053 35.0743V34.5364C99.053 34.4232 99.11 34.3666 99.2241 34.3666H100.251V35.0743ZM104.757 30.5449L103.73 30.9413V31.5924H103.188V32.5549H103.702V35.5556C103.702 35.7537 103.759 35.9236 103.902 36.0368C104.044 36.1783 104.187 36.235 104.386 36.235H105.413V35.2725H104.9C104.786 35.2725 104.729 35.2159 104.729 35.1026V32.5265H105.413V31.5641H104.729V30.5449H104.757ZM109.948 31.5641H108.037C107.837 31.5641 107.666 31.6207 107.552 31.7622C107.41 31.9038 107.353 32.0453 107.353 32.2435V35.4989C107.353 35.6971 107.41 35.8669 107.552 35.9802C107.695 36.1217 107.837 36.1783 108.037 36.1783H110.632V35.2159H108.55C108.436 35.2159 108.379 35.1592 108.379 35.046V34.3383H109.948C110.148 34.3383 110.319 34.2817 110.433 34.1401C110.575 33.9986 110.632 33.857 110.632 33.6589V32.2435C110.632 32.0453 110.575 31.8754 110.433 31.7622C110.319 31.6207 110.148 31.5641 109.948 31.5641ZM109.606 33.2343C109.606 33.3475 109.549 33.4041 109.435 33.4041H108.408V32.6964C108.408 32.5832 108.465 32.5265 108.579 32.5265H109.435C109.549 32.5265 109.606 32.5832 109.606 32.6964V33.2343ZM120.672 31.5641H119.274C119.132 31.5641 119.018 31.5924 118.903 31.6773C118.818 31.7622 118.761 31.8471 118.732 31.9887C118.704 31.8471 118.647 31.7622 118.561 31.6773C118.476 31.5924 118.362 31.5641 118.19 31.5641H117.592C117.477 31.5641 117.392 31.5924 117.306 31.649C117.221 31.7056 117.164 31.7905 117.135 31.8754L117.05 31.5641H116.137V36.2067H117.164V32.6964C117.164 32.5832 117.221 32.5265 117.335 32.5265H118.019C118.133 32.5265 118.19 32.5832 118.19 32.6964V36.2067H119.217V32.6964C119.217 32.5832 119.274 32.5265 119.388 32.5265H120.073C120.187 32.5265 120.244 32.5832 120.244 32.6964V36.2067H121.271V32.2435C121.271 32.0453 121.214 31.8754 121.071 31.7622C121.043 31.6207 120.871 31.5641 120.672 31.5641ZM125.891 31.5641H123.467V32.5265H125.378C125.492 32.5265 125.549 32.5832 125.549 32.6964V33.4041H123.98C123.781 33.4041 123.609 33.4607 123.495 33.6023C123.353 33.7438 123.296 33.8854 123.296 34.0835V35.4989C123.296 35.6971 123.353 35.8669 123.495 35.9802C123.638 36.1217 123.781 36.1783 123.98 36.1783H125.121C125.235 36.1783 125.321 36.15 125.406 36.0934C125.492 36.0368 125.549 35.9519 125.577 35.867L125.663 36.1783H126.576V32.2151C126.576 32.017 126.519 31.8471 126.376 31.7339C126.233 31.6207 126.062 31.5641 125.891 31.5641ZM125.52 35.0743C125.52 35.1875 125.463 35.2442 125.349 35.2442H124.494C124.379 35.2442 124.322 35.1875 124.322 35.0743V34.5364C124.322 34.4232 124.379 34.3666 124.494 34.3666H125.52V35.0743ZM129.656 31.649C129.57 31.7056 129.513 31.7905 129.485 31.8754L129.399 31.5641H128.486V36.2067H129.513V32.6964C129.513 32.5832 129.57 32.5265 129.684 32.5265H130.54V31.5641H129.941C129.855 31.5641 129.741 31.5924 129.656 31.649ZM135.845 31.5641H134.704L133.82 33.4041H133.535V30.0071H132.508V36.2067H133.535V34.3666H133.82L134.704 36.2067H135.845L134.733 33.8854L135.845 31.5641ZM140.152 31.5641H138.269C138.069 31.5641 137.898 31.6207 137.784 31.7622C137.642 31.9038 137.585 32.0453 137.585 32.2435V35.4989C137.585 35.6971 137.642 35.8669 137.784 35.9802C137.927 36.1217 138.069 36.1783 138.269 36.1783H140.865V35.2159H138.783C138.668 35.2159 138.611 35.1592 138.611 35.046V34.3383H140.18C140.38 34.3383 140.551 34.2817 140.665 34.1401C140.807 33.9986 140.865 33.857 140.865 33.6589V32.2435C140.865 32.0453 140.807 31.8754 140.665 31.7622C140.522 31.6207 140.351 31.5641 140.152 31.5641ZM139.809 33.2343C139.809 33.3475 139.752 33.4041 139.638 33.4041H138.611V32.6964C138.611 32.5832 138.668 32.5265 138.783 32.5265H139.638C139.752 32.5265 139.809 32.5832 139.809 32.6964V33.2343ZM145 32.5265V31.5641H144.316V30.5449L143.289 30.9413V31.5924H142.775V32.5549H143.289V35.5556C143.289 35.7537 143.346 35.9236 143.488 36.0368C143.631 36.1783 143.774 36.235 143.973 36.235H145V35.2725H144.487C144.373 35.2725 144.316 35.2159 144.316 35.1026V32.5265H145Z" fill="white"/>
</svg>
