<svg width="145" height="40" viewBox="0 0 145 40" fill="none" xmlns="http://www.w3.org/2000/svg">
<path d="M8.24252 0H1.02675C0.456333 0 0 0.452937 0 1.01911V8.18117C0 8.74734 0.456333 9.20028 1.02675 9.20028H8.24252C8.81294 9.20028 9.26927 8.74734 9.26927 8.18117V1.01911C9.26927 0.481245 8.81294 0 8.24252 0ZM8.24252 10.276H1.02675C0.456333 10.276 0 10.7289 0 11.2951V18.4572C0 19.0234 0.456333 19.4763 1.02675 19.4763H8.24252C8.81294 19.4763 9.26927 19.0234 9.26927 18.4572V11.2951C9.26927 10.7289 8.81294 10.276 8.24252 10.276ZM8.24252 20.5237H1.02675C0.456333 20.5237 0 20.9766 0 21.5428V28.7049C0 29.2711 0.456333 29.724 1.02675 29.724H8.24252C8.81294 29.724 9.26927 29.2711 9.26927 28.7049V21.5428C9.26927 20.9766 8.81294 20.5237 8.24252 20.5237ZM8.24252 30.7997H1.02675C0.456333 30.7997 0 31.2526 0 31.8188V38.9809C0 39.5471 0.456333 40 1.02675 40H8.24252C8.81294 40 9.26927 39.5471 9.26927 38.9809V31.8188C9.26927 31.2526 8.81294 30.7997 8.24252 30.7997Z" fill="#FF6000"/>
<path d="M39.2445 10.276H32.0287C31.4583 10.276 31.002 10.7289 31.002 11.2951V18.4572C31.002 19.0233 31.4583 19.4763 32.0287 19.4763H39.2445C39.8149 19.4763 40.2712 19.0233 40.2712 18.4572V11.2951C40.2712 10.7289 39.8149 10.276 39.2445 10.276ZM39.2445 20.5237H32.0287C31.4583 20.5237 31.002 20.9766 31.002 21.5428V28.7049C31.002 29.271 31.4583 29.724 32.0287 29.724H39.2445C39.8149 29.724 40.2712 29.271 40.2712 28.7049V21.5428C40.2712 20.9766 39.8149 20.5237 39.2445 20.5237ZM39.2445 30.7997H32.0287C31.4583 30.7997 31.002 31.2526 31.002 31.8188V38.9809C31.002 39.5471 31.4583 40 32.0287 40H39.2445C39.8149 40 40.2712 39.5471 40.2712 38.9809V31.8188C40.2712 31.2526 39.8149 30.7997 39.2445 30.7997Z" fill="#00AA40"/>
<path d="M49.598 10.276H42.3822C41.8118 10.276 41.3555 10.7289 41.3555 11.2951V18.4572C41.3555 19.0234 41.8118 19.4763 42.3822 19.4763H49.598C50.1684 19.4763 50.6247 19.0234 50.6247 18.4572V11.2951C50.6247 10.7289 50.1399 10.276 49.598 10.276ZM49.598 0H42.3822C41.8118 0 41.3555 0.452937 41.3555 1.01911V8.18117C41.3555 8.74734 41.8118 9.20028 42.3822 9.20028H49.598C50.1684 9.20028 50.6247 8.74734 50.6247 8.18117V1.01911C50.6247 0.481245 50.1399 0 49.598 0ZM49.598 20.5237H42.3822C41.8118 20.5237 41.3555 20.9766 41.3555 21.5428V28.7049C41.3555 29.2711 41.8118 29.724 42.3822 29.724H49.598C50.1684 29.724 50.6247 29.2711 50.6247 28.7049V21.5428C50.6247 20.9766 50.1399 20.5237 49.598 20.5237ZM49.598 30.7997H42.3822C41.8118 30.7997 41.3555 31.2526 41.3555 31.8188V38.9809C41.3555 39.5471 41.8118 40 42.3822 40H49.598C50.1684 40 50.6247 39.5471 50.6247 38.9809V31.8188C50.6247 31.2526 50.1399 30.7997 49.598 30.7997Z" fill="#F1DB01"/>
<path d="M18.5672 10.276H11.3515C10.781 10.276 10.3247 10.7289 10.3247 11.2951V18.4572C10.3247 19.0233 10.781 19.4763 11.3515 19.4763H18.5672C19.1376 19.4763 19.594 19.0233 19.594 18.4572V11.2951C19.594 10.7289 19.1376 10.276 18.5672 10.276ZM18.5672 20.5237H11.3515C10.781 20.5237 10.3247 20.9766 10.3247 21.5428V28.7049C10.3247 29.271 10.781 29.724 11.3515 29.724H18.5672C19.1376 29.724 19.594 29.271 19.594 28.7049V21.5428C19.594 20.9766 19.1376 20.5237 18.5672 20.5237ZM18.5672 30.7997H11.3515C10.781 30.7997 10.3247 31.2526 10.3247 31.8188V38.9809C10.3247 39.5471 10.781 40 11.3515 40H18.5672C19.1376 40 19.594 39.5471 19.594 38.9809V31.8188C19.594 31.2526 19.1376 30.7997 18.5672 30.7997ZM28.9203 30.7997H21.7045C21.1341 30.7997 20.6778 31.2526 20.6778 31.8188V38.9809C20.6778 39.5471 21.1341 40 21.7045 40H28.9203C29.4907 40 29.947 39.5471 29.947 38.9809V31.8188C29.947 31.2526 29.4907 30.7997 28.9203 30.7997Z" fill="#00A0E2"/>
<path d="M7.87161 0.481201H1.36885H1.34033L1.73962 1.01906C1.76814 1.01906 1.76814 1.01906 1.79667 1.01906H7.44379C7.90013 1.01906 8.24238 1.38707 8.24238 1.8117V7.4168C8.24238 7.44511 8.24238 7.44511 8.24238 7.47341L8.78427 7.86973V7.84143V1.38707C8.81279 0.87752 8.38498 0.481201 7.87161 0.481201ZM7.87161 10.7289H1.36885H1.34033L1.73962 11.2668C1.76814 11.2668 1.76814 11.2668 1.79667 11.2668H7.44379C7.90013 11.2668 8.24238 11.6348 8.24238 12.0594V17.6645C8.24238 17.6928 8.24238 17.6928 8.24238 17.7211L8.78427 18.1174V18.0891V11.6348C8.81279 11.1535 8.38498 10.7289 7.87161 10.7289ZM7.87161 20.9766H1.36885H1.34033L1.73962 21.5145C1.76814 21.5145 1.76814 21.5145 1.79667 21.5145H7.44379C7.90013 21.5145 8.24238 21.8825 8.24238 22.3071V27.9122C8.24238 27.9405 8.24238 27.9405 8.24238 27.9688L8.78427 28.3651V28.3368V21.8825C8.81279 21.4012 8.38498 20.9766 7.87161 20.9766ZM7.87161 31.2526H1.36885H1.34033L1.73962 31.7905C1.76814 31.7905 1.76814 31.7905 1.79667 31.7905H7.44379C7.90013 31.7905 8.24238 32.1585 8.24238 32.5831V38.1882C8.24238 38.2165 8.24238 38.2165 8.24238 38.2448L8.78427 38.6411V38.6128V32.1585C8.81279 31.6489 8.38498 31.2526 7.87161 31.2526ZM18.2247 10.7289H11.7219H11.6934L12.0927 11.2668C12.1212 11.2668 12.1212 11.2668 12.1497 11.2668H17.7969C18.2532 11.2668 18.5954 11.6348 18.5954 12.0594V17.6645C18.5954 17.6928 18.5954 17.6928 18.5954 17.7211L19.1373 18.1174V18.0891V11.6348C19.1373 11.1535 18.738 10.7289 18.2247 10.7289ZM18.2247 20.9766H11.7219H11.6934L12.0927 21.5145C12.1212 21.5145 12.1212 21.5145 12.1497 21.5145H17.7969C18.2532 21.5145 18.5954 21.8825 18.5954 22.3071V27.9122C18.5954 27.9405 18.5954 27.9405 18.5954 27.9688L19.1373 28.3651V28.3368V21.8825C19.1373 21.4012 18.738 20.9766 18.2247 20.9766ZM18.2247 31.2526H11.7219H11.6934L12.0927 31.7905C12.1212 31.7905 12.1212 31.7905 12.1497 31.7905H17.7969C18.2532 31.7905 18.5954 32.1585 18.5954 32.5831V38.1882C18.5954 38.2165 18.5954 38.2165 18.5954 38.2448L19.1373 38.6411V38.6128V32.1585C19.1373 31.6489 18.738 31.2526 18.2247 31.2526ZM38.9023 10.7289H32.3995H32.371L32.7703 11.2668C32.7988 11.2668 32.7988 11.2668 32.8273 11.2668H38.4745C38.9308 11.2668 39.2731 11.6348 39.2731 12.0594V17.6645C39.2731 17.6928 39.2731 17.6928 39.2731 17.7211L39.815 18.1174V18.0891V11.6348C39.815 11.1535 39.3871 10.7289 38.9023 10.7289ZM38.9023 20.9766H32.3995H32.371L32.7703 21.5145C32.7988 21.5145 32.7988 21.5145 32.8273 21.5145H38.4745C38.9308 21.5145 39.2731 21.8825 39.2731 22.3071V27.9122C39.2731 27.9405 39.2731 27.9405 39.2731 27.9688L39.815 28.3651V28.3368V21.8825C39.815 21.4012 39.3871 20.9766 38.9023 20.9766ZM38.9023 31.2526H32.3995H32.371L32.7703 31.7905C32.7988 31.7905 32.7988 31.7905 32.8273 31.7905H38.4745C38.9308 31.7905 39.2731 32.1585 39.2731 32.5831V38.1882C39.2731 38.2165 39.2731 38.2165 39.2731 38.2448L39.815 38.6411V38.6128V32.1585C39.815 31.6489 39.3871 31.2526 38.9023 31.2526ZM49.2268 10.7289H42.7241H42.6956L43.0948 11.2668C43.1234 11.2668 43.1234 11.2668 43.1519 11.2668H48.799C49.2554 11.2668 49.5976 11.6348 49.5976 12.0594V17.6645C49.5976 17.6928 49.5976 17.6928 49.5976 17.7211L50.1395 18.1174V18.0891V11.6348C50.1395 11.1535 49.7402 10.7289 49.2268 10.7289ZM49.2268 0.481201H42.7241H42.6956L43.0948 1.01906C43.1234 1.01906 43.1234 1.01906 43.1519 1.01906H48.799C49.2554 1.01906 49.5976 1.38707 49.5976 1.8117V7.4168C49.5976 7.44511 49.5976 7.44511 49.5976 7.47341L50.1395 7.86973V7.84143V1.38707C50.1395 0.87752 49.7402 0.481201 49.2268 0.481201ZM49.2268 20.9766H42.7241H42.6956L43.0948 21.5145C43.1234 21.5145 43.1234 21.5145 43.1519 21.5145H48.799C49.2554 21.5145 49.5976 21.8825 49.5976 22.3071V27.9122C49.5976 27.9405 49.5976 27.9405 49.5976 27.9688L50.1395 28.3651V28.3368V21.8825C50.1395 21.4012 49.7402 20.9766 49.2268 20.9766ZM49.2268 31.2526H42.7241H42.6956L43.0948 31.7905C43.1234 31.7905 43.1234 31.7905 43.1519 31.7905H48.799C49.2554 31.7905 49.5976 32.1585 49.5976 32.5831V38.1882C49.5976 38.2165 49.5976 38.2165 49.5976 38.2448L50.1395 38.6411V38.6128V32.1585C50.1395 31.6489 49.7402 31.2526 49.2268 31.2526ZM28.5492 31.2526H22.0465H22.0179L22.4172 31.7905C22.4458 31.7905 22.4458 31.7905 22.4743 31.7905H28.1214C28.5777 31.7905 28.92 32.1585 28.92 32.5831V38.1882C28.92 38.2165 28.92 38.2165 28.92 38.2448L29.4619 38.6411V38.6128V32.1585C29.4904 31.6489 29.0626 31.2526 28.5492 31.2526Z" fill="#131313"/>
<path d="M74.2969 3.9066H62.3752C62.1755 3.9066 62.0044 4.07646 62.0044 4.27462V7.21871C62.0044 7.41687 62.1755 7.58672 62.3752 7.58672H66.3396V27.4027C66.3396 27.6292 66.5107 27.799 66.7389 27.799H69.9902C70.2184 27.799 70.3895 27.6292 70.3895 27.4027V7.58672H74.3254C74.525 7.58672 74.6962 7.41687 74.6962 7.21871V4.27462C74.6677 4.07646 74.4965 3.9066 74.2969 3.9066ZM88.3291 3.9066H77.7194C77.5197 3.9066 77.3486 4.07646 77.3486 4.27462V27.431C77.3486 27.6292 77.5197 27.799 77.7194 27.799H88.3291C88.5288 27.799 88.6999 27.6292 88.6999 27.431V24.4869C88.6999 24.2888 88.5288 24.1189 88.3291 24.1189H81.3415V17.6929H88.3291C88.5288 17.6929 88.6999 17.523 88.6999 17.3249V14.3808C88.6999 14.1826 88.5288 14.0128 88.3291 14.0128H81.3415V7.58672H88.3291C88.5288 7.58672 88.6999 7.41687 88.6999 7.21871V4.27462C88.6999 4.07646 88.5288 3.9066 88.3291 3.9066ZM103.673 3.9066H91.7516C91.552 3.9066 91.3809 4.07646 91.3809 4.27462V7.21871C91.3809 7.41687 91.552 7.58672 91.7516 7.58672H95.716V27.4027C95.716 27.6292 95.8872 27.799 96.1153 27.799H99.3667C99.5949 27.799 99.766 27.6292 99.766 27.4027V7.58672H103.702C103.902 7.58672 104.073 7.41687 104.073 7.21871V4.27462C104.044 4.07646 103.873 3.9066 103.673 3.9066ZM143.603 13.9845H136.872C136.529 13.9845 136.244 13.7014 136.244 13.3617V8.1812C136.244 8.09627 136.244 8.03965 136.273 7.98304C136.358 7.75657 136.586 7.61503 136.843 7.61503L144.544 7.58672C144.743 7.58672 144.914 7.41687 144.914 7.21871V4.24631C144.914 4.04815 144.743 3.8783 144.544 3.8783H133.592C133.021 3.8783 132.536 4.218 132.337 4.72755C132.251 4.8974 132.223 5.06726 132.223 5.26542V16.3341C132.223 17.0701 132.822 17.6929 133.592 17.6929H140.323C140.665 17.6929 140.95 17.976 140.95 18.3157V23.4961C140.95 23.5811 140.95 23.6377 140.922 23.6943C140.836 23.9208 140.608 24.0623 140.351 24.0623L132.651 24.0906C132.451 24.0906 132.28 24.2605 132.28 24.4586V27.4027C132.28 27.6009 132.451 27.7707 132.651 27.7707H143.603C144.173 27.7707 144.658 27.431 144.857 26.9215C144.943 26.7516 144.972 26.5818 144.972 26.3836V15.3433C144.972 14.5789 144.344 13.9845 143.603 13.9845ZM118.761 3.9066H107.124C106.896 3.9066 106.725 4.07646 106.725 4.30292V27.4027C106.725 27.6292 106.896 27.799 107.124 27.799H110.376C110.604 27.799 110.775 27.6292 110.775 27.4027V17.6929H111.517L115.738 26.6101C116.051 27.2612 116.508 27.799 116.736 27.799H119.987C120.187 27.799 120.13 27.3461 119.873 26.7516L115.823 17.9477C115.795 17.8627 115.738 17.7778 115.709 17.6929H118.789C119.531 17.6929 120.158 17.0984 120.158 16.3341V5.26542C120.13 4.52939 119.531 3.9066 118.761 3.9066ZM116.451 13.4183C116.451 13.758 116.165 14.0411 115.823 14.0411H110.804V7.55841H115.823C116.165 7.55841 116.451 7.84149 116.451 8.1812V13.4183ZM127.802 3.9066H124.551C124.322 3.9066 124.151 4.07646 124.151 4.30292V27.4027C124.151 27.6292 124.322 27.799 124.551 27.799H127.802C128.03 27.799 128.201 27.6292 128.201 27.4027V4.30292C128.201 4.10476 128.03 3.9066 127.802 3.9066Z" fill="#131313"/>
<path d="M63.1738 31.649C63.0882 31.7056 63.0311 31.7905 63.0026 31.8754L62.9171 31.5641H62.0044V36.2067H63.0311V32.6964C63.0311 32.5832 63.0882 32.5265 63.2023 32.5265H64.0579V31.5641H63.459C63.3449 31.5641 63.2593 31.5924 63.1738 31.649ZM68.5642 31.5641H66.6533C66.4536 31.5641 66.2825 31.6207 66.1684 31.7622C66.0258 31.9038 65.9688 32.0453 65.9688 32.2435V35.4989C65.9688 35.6971 66.0258 35.8669 66.1684 35.9802C66.311 36.1217 66.4536 36.1783 66.6533 36.1783H69.2487V35.2159H67.1667C67.0526 35.2159 66.9955 35.1592 66.9955 35.046V34.3383H68.5642C68.7638 34.3383 68.935 34.2817 69.049 34.1401C69.1916 33.9986 69.2487 33.857 69.2487 33.6589V32.2435C69.2487 32.0453 69.1916 31.8754 69.049 31.7622C68.935 31.6207 68.7638 31.5641 68.5642 31.5641ZM68.2219 33.2343C68.2219 33.3475 68.1649 33.4041 68.0508 33.4041H67.0241V32.6964C67.0241 32.5832 67.0811 32.5265 67.1952 32.5265H68.0508C68.1649 32.5265 68.2219 32.5832 68.2219 32.6964V33.2343ZM73.755 31.5641H71.3307V32.5265H73.2416C73.3557 32.5265 73.4127 32.5832 73.4127 32.6964V33.4041H71.8441C71.6444 33.4041 71.4733 33.4607 71.3592 33.6023C71.2166 33.7438 71.1596 33.8854 71.1596 34.0835V35.4989C71.1596 35.6971 71.2166 35.8669 71.3592 35.9802C71.5018 36.1217 71.6444 36.1783 71.8441 36.1783H72.9849C73.099 36.1783 73.1846 36.15 73.2701 36.0934C73.3557 36.0368 73.4127 35.9519 73.4413 35.867L73.5268 36.1783H74.4395V32.2151C74.4395 32.017 74.3824 31.8471 74.2398 31.7339C74.1258 31.6207 73.9546 31.5641 73.755 31.5641ZM73.4127 35.0743C73.4127 35.1875 73.3557 35.2442 73.2416 35.2442H72.386C72.2719 35.2442 72.2149 35.1875 72.2149 35.0743V34.5364C72.2149 34.4232 72.2719 34.3666 72.386 34.3666H73.4127V35.0743ZM77.7479 35.0743V30.0071H76.7212V35.4989C76.7212 35.6971 76.7782 35.8669 76.9208 35.9802C77.0634 36.1217 77.206 36.1783 77.4057 36.1783H78.0902V35.2159H77.919C77.8049 35.2442 77.7479 35.1875 77.7479 35.0743ZM86.2186 31.5641H84.3077C84.108 31.5641 83.9369 31.6207 83.8228 31.7622C83.6802 31.9038 83.6232 32.0453 83.6232 32.2435V35.4989C83.6232 35.6971 83.6802 35.8669 83.8228 35.9802C83.9654 36.1217 84.108 36.1783 84.3077 36.1783H86.9031V35.2159H84.8211C84.707 35.2159 84.6499 35.1592 84.6499 35.046V34.3383H86.2186C86.4182 34.3383 86.5894 34.2817 86.7034 34.1401C86.8461 33.9986 86.9031 33.857 86.9031 33.6589V32.2435C86.9031 32.0453 86.8461 31.8754 86.7034 31.7622C86.5894 31.6207 86.4182 31.5641 86.2186 31.5641ZM85.8763 33.2343C85.8763 33.3475 85.8193 33.4041 85.7052 33.4041H84.6785V32.6964C84.6785 32.5832 84.7355 32.5265 84.8496 32.5265H85.7052C85.8193 32.5265 85.8763 32.5832 85.8763 32.6964V33.2343ZM91.2383 33.4041H90.0119C89.8978 33.4041 89.8407 33.3475 89.8407 33.2343V32.6964C89.8407 32.5832 89.8978 32.5265 90.0119 32.5265H91.7516V31.5641H89.4985C89.2988 31.5641 89.1277 31.6207 89.0136 31.7622C88.871 31.9038 88.814 32.0453 88.814 32.2435V33.6589C88.814 33.857 88.871 34.0269 89.0136 34.1401C89.1562 34.2817 89.2988 34.3383 89.4985 34.3383H90.7249C90.839 34.3383 90.896 34.3949 90.896 34.5081V35.046C90.896 35.1026 90.8675 35.1309 90.839 35.1592C90.8105 35.1875 90.7534 35.2159 90.7249 35.2159H88.814V36.1783H91.2383C91.4379 36.1783 91.609 36.1217 91.7231 35.9802C91.8657 35.8386 91.9228 35.6971 91.9228 35.4989V34.0835C91.9228 33.8854 91.8657 33.7155 91.7231 33.6023C91.609 33.4607 91.4379 33.4041 91.2383 33.4041ZM95.4023 30.5449L94.3756 30.9413V31.5924H93.8622V32.5549H94.3756V35.5556C94.3756 35.7537 94.4326 35.9236 94.5752 36.0368C94.7178 36.1783 94.8604 36.235 95.0601 36.235H96.0868V35.2725H95.5734C95.4593 35.2725 95.4023 35.2159 95.4023 35.1026V32.5265H96.0868V31.5641H95.4023V30.5449ZM100.593 31.5641H98.1688V32.5265H100.08C100.194 32.5265 100.251 32.5832 100.251 32.6964V33.4041H98.6822C98.4826 33.4041 98.3114 33.4607 98.1973 33.6023C98.0547 33.7438 97.9977 33.8854 97.9977 34.0835V35.4989C97.9977 35.6971 98.0547 35.8669 98.1973 35.9802C98.34 36.1217 98.4826 36.1783 98.6822 36.1783H99.823C99.9371 36.1783 100.023 36.15 100.108 36.0934C100.194 36.0368 100.251 35.9519 100.279 35.867L100.365 36.1783H101.278V32.2151C101.278 32.017 101.221 31.8471 101.078 31.7339C100.964 31.6207 100.793 31.5641 100.593 31.5641ZM100.251 35.0743C100.251 35.1875 100.194 35.2442 100.08 35.2442H99.2241C99.11 35.2442 99.053 35.1875 99.053 35.0743V34.5364C99.053 34.4232 99.11 34.3666 99.2241 34.3666H100.251V35.0743ZM104.757 30.5449L103.73 30.9413V31.5924H103.188V32.5549H103.702V35.5556C103.702 35.7537 103.759 35.9236 103.902 36.0368C104.044 36.1783 104.187 36.235 104.386 36.235H105.413V35.2725H104.9C104.786 35.2725 104.729 35.2159 104.729 35.1026V32.5265H105.413V31.5641H104.729V30.5449H104.757ZM109.948 31.5641H108.037C107.837 31.5641 107.666 31.6207 107.552 31.7622C107.41 31.9038 107.353 32.0453 107.353 32.2435V35.4989C107.353 35.6971 107.41 35.8669 107.552 35.9802C107.695 36.1217 107.837 36.1783 108.037 36.1783H110.632V35.2159H108.55C108.436 35.2159 108.379 35.1592 108.379 35.046V34.3383H109.948C110.148 34.3383 110.319 34.2817 110.433 34.1401C110.575 33.9986 110.632 33.857 110.632 33.6589V32.2435C110.632 32.0453 110.575 31.8754 110.433 31.7622C110.319 31.6207 110.148 31.5641 109.948 31.5641ZM109.606 33.2343C109.606 33.3475 109.549 33.4041 109.435 33.4041H108.408V32.6964C108.408 32.5832 108.465 32.5265 108.579 32.5265H109.435C109.549 32.5265 109.606 32.5832 109.606 32.6964V33.2343ZM120.672 31.5641H119.274C119.132 31.5641 119.018 31.5924 118.903 31.6773C118.818 31.7622 118.761 31.8471 118.732 31.9887C118.704 31.8471 118.647 31.7622 118.561 31.6773C118.476 31.5924 118.362 31.5641 118.19 31.5641H117.592C117.477 31.5641 117.392 31.5924 117.306 31.649C117.221 31.7056 117.164 31.7905 117.135 31.8754L117.05 31.5641H116.137V36.2067H117.164V32.6964C117.164 32.5832 117.221 32.5265 117.335 32.5265H118.019C118.133 32.5265 118.19 32.5832 118.19 32.6964V36.2067H119.217V32.6964C119.217 32.5832 119.274 32.5265 119.388 32.5265H120.073C120.187 32.5265 120.244 32.5832 120.244 32.6964V36.2067H121.271V32.2435C121.271 32.0453 121.214 31.8754 121.071 31.7622C121.043 31.6207 120.871 31.5641 120.672 31.5641ZM125.891 31.5641H123.467V32.5265H125.378C125.492 32.5265 125.549 32.5832 125.549 32.6964V33.4041H123.98C123.781 33.4041 123.609 33.4607 123.495 33.6023C123.353 33.7438 123.296 33.8854 123.296 34.0835V35.4989C123.296 35.6971 123.353 35.8669 123.495 35.9802C123.638 36.1217 123.781 36.1783 123.98 36.1783H125.121C125.235 36.1783 125.321 36.15 125.406 36.0934C125.492 36.0368 125.549 35.9519 125.577 35.867L125.663 36.1783H126.576V32.2151C126.576 32.017 126.519 31.8471 126.376 31.7339C126.233 31.6207 126.062 31.5641 125.891 31.5641ZM125.52 35.0743C125.52 35.1875 125.463 35.2442 125.349 35.2442H124.494C124.379 35.2442 124.322 35.1875 124.322 35.0743V34.5364C124.322 34.4232 124.379 34.3666 124.494 34.3666H125.52V35.0743ZM129.656 31.649C129.57 31.7056 129.513 31.7905 129.485 31.8754L129.399 31.5641H128.486V36.2067H129.513V32.6964C129.513 32.5832 129.57 32.5265 129.684 32.5265H130.54V31.5641H129.941C129.855 31.5641 129.741 31.5924 129.656 31.649ZM135.845 31.5641H134.704L133.82 33.4041H133.535V30.0071H132.508V36.2067H133.535V34.3666H133.82L134.704 36.2067H135.845L134.733 33.8854L135.845 31.5641ZM140.152 31.5641H138.269C138.069 31.5641 137.898 31.6207 137.784 31.7622C137.642 31.9038 137.585 32.0453 137.585 32.2435V35.4989C137.585 35.6971 137.642 35.8669 137.784 35.9802C137.927 36.1217 138.069 36.1783 138.269 36.1783H140.865V35.2159H138.783C138.668 35.2159 138.611 35.1592 138.611 35.046V34.3383H140.18C140.38 34.3383 140.551 34.2817 140.665 34.1401C140.807 33.9986 140.865 33.857 140.865 33.6589V32.2435C140.865 32.0453 140.807 31.8754 140.665 31.7622C140.522 31.6207 140.351 31.5641 140.152 31.5641ZM139.809 33.2343C139.809 33.3475 139.752 33.4041 139.638 33.4041H138.611V32.6964C138.611 32.5832 138.668 32.5265 138.783 32.5265H139.638C139.752 32.5265 139.809 32.5832 139.809 32.6964V33.2343ZM145 32.5265V31.5641H144.316V30.5449L143.289 30.9413V31.5924H142.775V32.5549H143.289V35.5556C143.289 35.7537 143.346 35.9236 143.488 36.0368C143.631 36.1783 143.774 36.235 143.973 36.235H145V35.2725H144.487C144.373 35.2725 144.316 35.2159 144.316 35.1026V32.5265H145Z" fill="#131313"/>
</svg>
