<svg width="40" height="40" viewBox="0 0 40 40" fill="none" xmlns="http://www.w3.org/2000/svg">
<g clip-path="url(#clip0_199_4096)">
<path d="M38.3601 29.6039L34.219 27.2572V23.151C34.219 22.7196 33.8691 22.3698 33.4377 22.3698C33.0063 22.3698 32.6565 22.7196 32.6565 23.151V26.3717L30.8401 25.3424C30.4648 25.1298 29.988 25.2616 29.7751 25.637C29.5624 26.0124 29.6943 26.4891 30.0697 26.7019L31.9043 27.7415L20.7815 34.1631V29.1853C25.5004 28.7873 29.219 24.8201 29.219 20C29.219 18.6007 28.905 17.2736 28.3448 16.0844L32.6565 13.595V16.7969C32.6565 17.2283 33.0063 17.5781 33.4377 17.5781C33.8691 17.5781 34.219 17.2283 34.219 16.7969V12.2418C34.219 12.1047 34.1829 11.9699 34.1143 11.8512C34.0457 11.7324 33.9471 11.6338 33.8284 11.5652L20.7815 4.03266V0.78125C20.7815 0.349844 20.4316 0 20.0002 0C19.5688 0 19.219 0.349844 19.219 0.78125V4.03266L6.1721 11.5652C6.05334 11.6338 5.95472 11.7324 5.88615 11.8512C5.81758 11.9699 5.78148 12.1047 5.78148 12.2418V17.0312C5.78148 17.4626 6.13132 17.8124 6.56273 17.8124C6.99413 17.8124 7.34398 17.4626 7.34398 17.0312V13.5964L11.6521 16.092C11.0941 17.2793 10.7815 18.6037 10.7815 20C10.7815 24.8201 14.5001 28.7874 19.219 29.1853V34.1631L8.13335 27.7628L9.31921 27.0753C9.69249 26.8588 9.8196 26.3809 9.60327 26.0076C9.38679 25.6344 8.90874 25.5073 8.53554 25.7235L7.34398 26.4144V22.7344C7.34398 22.303 6.99413 21.9531 6.56273 21.9531C6.13132 21.9531 5.78148 22.303 5.78148 22.7344V27.3202L2.32507 29.3241C1.95179 29.5406 1.82468 30.0186 2.04101 30.3919C2.09245 30.4806 2.16087 30.5584 2.24238 30.6207C2.32389 30.6831 2.41688 30.7287 2.51603 30.7551C2.61519 30.7815 2.71857 30.788 2.82027 30.7744C2.92197 30.7609 3.01999 30.7274 3.10874 30.6759L6.57405 28.6668L19.6096 36.1929C19.7305 36.2627 19.8653 36.2976 20.0002 36.2976C20.1351 36.2976 20.27 36.2627 20.3909 36.1929L33.4813 28.6352L37.5898 30.9633C37.679 31.0139 37.7774 31.0464 37.8792 31.059C37.981 31.0716 38.0843 31.064 38.1832 31.0366C38.2821 31.0093 38.3746 30.9627 38.4555 30.8996C38.5364 30.8365 38.6041 30.7581 38.6547 30.6688C38.8674 30.2934 38.7355 29.8166 38.3601 29.6039ZM8.12405 12.2425L19.219 5.83687V8.28023C19.219 8.71164 19.5688 9.06148 20.0002 9.06148C20.4316 9.06148 20.7815 8.71164 20.7815 8.28023V5.83687L31.8752 12.2419L27.5613 14.7325C25.8936 12.3457 23.1264 10.7812 20.0002 10.7812C16.8711 10.7812 14.1016 12.3487 12.4343 14.7395L8.12405 12.2425ZM20.0002 27.6562C15.7786 27.6562 12.344 24.2216 12.344 20C12.344 15.7784 15.7786 12.3437 20.0002 12.3437C24.2219 12.3437 27.6565 15.7784 27.6565 20C27.6565 24.2216 24.2219 27.6562 20.0002 27.6562ZM39.7712 19.4477C39.626 19.3023 39.4244 19.2187 39.219 19.2187C39.0135 19.2187 38.8119 19.3023 38.6666 19.4477C38.5213 19.593 38.4377 19.7945 38.4377 20C38.4377 20.2055 38.5212 20.407 38.6666 20.5523C38.8119 20.6976 39.0135 20.7812 39.219 20.7812C39.4244 20.7812 39.626 20.6977 39.7712 20.5523C39.9166 20.407 40.0002 20.2055 40.0002 20C40.0002 19.7945 39.9166 19.593 39.7712 19.4477Z" fill="#FF6000"/>
<path d="M36.8375 19.4477C36.691 19.3017 36.4928 19.2194 36.2859 19.2188C36.0796 19.2188 35.8789 19.3023 35.7328 19.4477C35.5875 19.593 35.5039 19.7945 35.5039 20C35.5039 20.2055 35.5874 20.4062 35.7328 20.5523C35.8799 20.6983 36.0786 20.7806 36.2859 20.7812C36.4914 20.7812 36.693 20.6977 36.8375 20.5523C36.9836 20.407 37.0665 20.2055 37.0665 20C37.0665 19.7945 36.9836 19.593 36.8375 19.4477ZM33.9898 19.4477C33.8445 19.3023 33.643 19.2188 33.4375 19.2188C33.232 19.2188 33.0305 19.3023 32.8852 19.4477C32.7398 19.593 32.6562 19.7945 32.6562 20C32.6562 20.2055 32.7398 20.407 32.8852 20.5523C33.0305 20.6976 33.232 20.7812 33.4375 20.7812C33.643 20.7812 33.8445 20.6977 33.9898 20.5523C34.1352 20.407 34.2188 20.2055 34.2188 20C34.2188 19.7945 34.1352 19.593 33.9898 19.4477ZM7.11477 19.4477C6.96953 19.3023 6.76797 19.2188 6.5625 19.2188C6.35703 19.2188 6.15547 19.3023 6.01016 19.4477C5.86484 19.593 5.78125 19.7945 5.78125 20C5.78125 20.2055 5.86477 20.407 6.01016 20.5523C6.15547 20.6977 6.35703 20.7812 6.5625 20.7812C6.76797 20.7812 6.96953 20.6977 7.11477 20.5523C7.26016 20.407 7.34375 20.2055 7.34375 20C7.34375 19.7945 7.26016 19.593 7.11477 19.4477ZM4.18203 19.4477C4.03488 19.3017 3.83619 19.2194 3.62891 19.2188C3.42336 19.2188 3.22266 19.3023 3.07656 19.4477C2.93125 19.593 2.84766 19.7945 2.84766 20C2.84766 20.2055 2.93117 20.407 3.07656 20.5523C3.22348 20.6981 3.42187 20.7804 3.62891 20.7812C3.83516 20.7812 4.03594 20.6977 4.18203 20.5523C4.32727 20.407 4.41094 20.2055 4.41094 20C4.41094 19.7945 4.32734 19.593 4.18203 19.4477ZM1.33352 19.4477C1.18828 19.3023 0.986719 19.2188 0.78125 19.2188C0.575781 19.2188 0.374219 19.3023 0.228906 19.4477C0.0835938 19.593 0 19.7945 0 20C0 20.2055 0.0835156 20.407 0.228906 20.5523C0.374219 20.6977 0.575781 20.7812 0.78125 20.7812C0.986719 20.7812 1.18828 20.6977 1.33352 20.5523C1.47891 20.407 1.5625 20.2055 1.5625 20C1.5625 19.7945 1.47891 19.593 1.33352 19.4477ZM17.4856 18.4955L18.3976 17.5836C18.5068 17.4743 18.5812 17.3351 18.6113 17.1836C18.6414 17.0321 18.6259 16.875 18.5668 16.7323C18.5077 16.5895 18.4076 16.4675 18.2791 16.3817C18.1507 16.2958 17.9997 16.25 17.8452 16.2499H15.2802C14.8488 16.2499 14.4989 16.5998 14.4989 17.0312C14.4989 17.4626 14.8488 17.8124 15.2802 17.8124H15.959L15.1048 18.6666C14.9956 18.7758 14.9213 18.915 14.8911 19.0666C14.861 19.2181 14.8765 19.3752 14.9356 19.5179C14.9947 19.6606 15.0948 19.7826 15.2233 19.8685C15.3517 19.9544 15.5028 20.0002 15.6573 20.0002H16.9332C17.5362 20.0002 18.0269 20.4909 18.0269 21.0939C18.0269 21.697 17.5362 22.1876 16.9332 22.1876C16.3302 22.1876 15.8395 21.697 15.8395 21.0939C15.8395 20.6625 15.4897 20.3127 15.0583 20.3127C14.6269 20.3127 14.277 20.6625 14.277 21.0939C14.277 22.5585 15.4686 23.7501 16.9332 23.7501C18.3978 23.7501 19.5894 22.5585 19.5894 21.0939C19.5895 19.8187 18.6862 18.7504 17.4856 18.4955ZM21.9732 16.25L21.1919 16.2499H21.1918C20.9846 16.2499 20.7859 16.3322 20.6394 16.4787C20.4929 16.6253 20.4105 16.824 20.4105 17.0312V22.9688C20.4105 23.4002 20.7603 23.7501 21.1918 23.7501H21.9728C24.0406 23.7501 25.7229 22.0679 25.7229 20.0001C25.7229 17.9324 24.0408 16.2502 21.9732 16.25ZM21.973 22.1876V17.8125C23.1791 17.8126 24.1604 18.794 24.1604 20.0001C24.1604 21.2062 23.1791 22.1874 21.973 22.1876ZM6.56742 0H0.78125C0.349844 0 0 0.349844 0 0.78125V6.56742C0 6.99891 0.349844 7.34867 0.78125 7.34867C1.21266 7.34867 1.5625 6.99883 1.5625 6.56742V1.5625H6.56742C6.99883 1.5625 7.34867 1.21266 7.34867 0.78125C7.34867 0.349844 6.99883 0 6.56742 0ZM39.2188 0H33.4326C33.0012 0 32.6513 0.349844 32.6513 0.78125C32.6513 1.21266 33.0012 1.5625 33.4326 1.5625H38.4375V6.56742C38.4375 6.99883 38.7873 7.34867 39.2188 7.34867C39.6502 7.34867 40 6.99883 40 6.56742V0.78125C40 0.349844 39.6502 0 39.2188 0ZM39.2188 32.6513C38.7873 32.6513 38.4375 33.0012 38.4375 33.4326V38.4375H33.4326C33.0012 38.4375 32.6513 38.7873 32.6513 39.2188C32.6513 39.6502 33.0012 40 33.4326 40H39.2188C39.6502 40 40 39.6502 40 39.2188V33.4326C40 33.0011 39.6502 32.6513 39.2188 32.6513ZM6.56742 38.4375H1.5625V33.4326C1.5625 33.0012 1.21266 32.6513 0.78125 32.6513C0.349844 32.6513 0 33.0012 0 33.4326V39.2188C0 39.6502 0.349844 40 0.78125 40H6.56742C6.99883 40 7.34867 39.6502 7.34867 39.2188C7.34867 38.7873 6.99891 38.4375 6.56742 38.4375Z" fill="#FF6000"/>
</g>
<defs>
<clipPath id="clip0_199_4096">
<rect width="40" height="40" fill="white"/>
</clipPath>
</defs>
</svg>
