<svg width="62" height="60" viewBox="0 0 62 60" fill="none" xmlns="http://www.w3.org/2000/svg">
<path d="M37.1491 31.1291C33.8228 27.5154 30.6608 23.7771 27.9916 19.6235C26.1026 16.6329 24.419 13.2684 22.4068 11.1916C20.5999 9.28093 19.4501 7.24564 18.8752 5.16882C14.8508 6.33184 12.0584 7.32872 8.44469 11.1501C-16.7281 37.4011 19.7375 77.9406 47.7438 51.2742C49.7971 49.322 49.0579 46.9544 50.2899 44.8361C46.3887 40.2671 41.2556 35.5735 37.1491 31.1291Z" fill="#B14A0C"/>
<path d="M47.7456 51.2739C21.7926 72.5821 -14.3446 38.7299 8.44648 11.1082C8.81607 10.6928 9.22672 10.2359 9.63737 9.82058C14.8526 4.58699 20.6428 2.13634 26.3097 1.76251C26.8846 1.72098 27.3364 2.17788 27.3774 2.71785C27.4596 6.12384 29.636 8.40834 32.8391 8.86524C33.3318 8.94831 33.6193 9.40521 33.4961 9.90365C33.1676 10.9836 33.0444 12.1466 33.0444 13.3512C33.1676 19.457 38.1775 24.4829 44.214 24.5245C45.446 24.5245 46.6369 24.3583 47.7867 23.9845C48.2384 23.8183 48.7312 24.1091 48.8133 24.6075C49.5525 28.6781 53.2073 27.9305 54.932 27.3489C55.4248 27.1828 55.9586 27.4736 56.0818 27.972C59.4491 40.3914 47.7456 51.2739 47.7456 51.2739Z" fill="#FF6000"/>
<path d="M30.127 25.0233C30.127 28.097 27.6631 30.1738 24.6243 30.1738C21.5855 30.1738 19.1216 28.097 19.1216 25.0233C19.1216 21.9496 21.5855 19.4574 24.6243 19.4574C27.6631 19.4574 30.127 21.908 30.127 25.0233Z" fill="white"/>
<path d="M47.4158 38.4395C47.4158 40.8071 45.5268 42.7178 43.1861 42.7178C40.8454 42.7178 39.2439 41.3056 39.2439 38.938C39.2439 36.5704 40.8454 34.1198 43.1861 34.1198C45.5268 34.1198 47.4158 36.072 47.4158 38.4395Z" fill="white"/>
<path d="M15.7971 33.2058C15.7971 35.0334 14.483 36.0718 12.6762 36.0718C10.8693 36.0718 9.30884 35.0334 9.30884 33.2058C9.30884 31.3782 10.7461 29.9244 12.553 29.9244C14.3598 29.9244 15.7971 31.3782 15.7971 33.2058Z" fill="white"/>
<path d="M25.7326 44.3367C25.7326 45.1675 25.0755 45.8321 24.2542 45.8321C23.4329 45.8321 22.7759 45.1675 22.7759 44.3367C22.7759 43.506 23.4329 42.8414 24.2542 42.8414C25.0755 42.8414 25.7326 43.506 25.7326 44.3367Z" fill="white"/>
<path d="M15.7132 15.636C16.6203 15.636 17.3558 14.8922 17.3558 13.9746C17.3558 13.057 16.6203 12.3131 15.7132 12.3131C14.806 12.3131 14.0706 13.057 14.0706 13.9746C14.0706 14.8922 14.806 15.636 15.7132 15.636Z" fill="white"/>
<path d="M45.4012 4.00543C45.5654 5.99918 43.8407 7.6191 41.5411 7.6191C39.2414 7.6191 37.4757 5.83303 37.5988 3.6316C37.722 1.43017 39.4468 -0.189746 41.4589 0.0179357C43.4711 0.225618 45.2369 1.97015 45.4012 4.00543Z" fill="#FF6000"/>
<path d="M42.4467 6.82983C43.3501 6.82983 44.1714 6.58061 44.8284 6.12371C44.1303 7.03751 42.9805 7.61902 41.5843 7.61902C39.2847 7.61902 37.5189 5.83295 37.6421 3.67306C37.7242 2.34389 38.3812 1.22241 39.3257 0.599365C38.874 1.22241 38.5455 2.0116 38.5044 2.88387C38.4223 5.00222 40.1881 6.78829 42.4467 6.82983Z" fill="#B14A0C"/>
<path d="M45.199 15.3027C45.1169 16.6318 44.0081 17.7533 42.7351 17.8779C41.4621 17.961 40.4355 16.881 40.4765 15.4688C40.4765 14.0566 41.5853 12.8936 42.9404 12.8936C44.2956 12.8936 45.2811 13.9735 45.199 15.3027Z" fill="#FF6000"/>
<path d="M43.226 17.2963C43.7188 17.2547 44.2116 17.047 44.6222 16.7563C44.1705 17.3793 43.4724 17.7947 42.6922 17.8778C41.4192 17.9609 40.4336 16.8809 40.4336 15.4687C40.4336 14.6379 40.8442 13.8487 41.4602 13.3918C41.1728 13.8072 40.9674 14.3472 40.9674 14.8872C40.9264 16.2994 41.953 17.3793 43.226 17.2963Z" fill="#B14A0C"/>
<path d="M61.9913 16.3421C61.8681 17.9204 60.5951 19.2496 59.0757 19.3327C57.5974 19.4157 56.4065 18.1697 56.4065 16.5082C56.4476 14.8467 57.7206 13.5176 59.3221 13.5176C60.9236 13.5176 62.1145 14.8052 61.9913 16.3421Z" fill="#FF6000"/>
<path d="M59.6917 18.7098C60.3077 18.6683 60.8826 18.4191 61.3343 18.0452C60.8004 18.7929 59.9791 19.2913 59.0757 19.3329C57.5974 19.4159 56.4065 18.1698 56.4065 16.5084C56.4065 15.5115 56.8993 14.6392 57.5974 14.0577C57.2278 14.5562 57.0225 15.1792 57.0225 15.8438C57.0225 17.5468 58.2134 18.7929 59.6917 18.7098Z" fill="#B14A0C"/>
</svg>
