<svg width="18" height="18" viewBox="0 0 18 18" fill="none" xmlns="http://www.w3.org/2000/svg">
<g clip-path="url(#clip0_576_2290)">
<path d="M17.5357 5.66462C16.9189 5.04777 15.9152 5.0478 15.2982 5.66476L13.7117 7.25263V3.07357C13.7117 2.65099 13.5471 2.25373 13.2483 1.95493L11.7568 0.463359C11.458 0.164531 11.0607 0 10.6381 0H1.58276C0.710432 0 0.000732422 0.709699 0.000732422 1.58203V16.418C0.000732422 17.2903 0.710432 18 1.58276 18H12.1296C13.002 18 13.7117 17.2903 13.7117 16.418V11.7292L17.5357 7.90196C18.154 7.28371 18.1541 6.28295 17.5357 5.66462ZM10.5476 1.05469C10.6473 1.05469 10.8393 1.03743 11.011 1.20913L12.5025 2.7007C12.6699 2.86808 12.657 3.05149 12.657 3.16406H10.5476V1.05469ZM12.657 16.418C12.657 16.7087 12.4205 16.9453 12.1296 16.9453H1.58276C1.29199 16.9453 1.05542 16.7087 1.05542 16.418V1.58203C1.05542 1.29125 1.29199 1.05469 1.58276 1.05469H9.49292V3.69141C9.49292 3.98264 9.72903 4.21875 10.0203 4.21875H12.657V8.30823L11.1011 9.86541L10.3557 10.6109C10.2978 10.6687 10.2542 10.7393 10.2283 10.817L9.48248 13.0543C9.45149 13.1472 9.44699 13.2469 9.46949 13.3423C9.49198 13.4376 9.54058 13.5248 9.60984 13.594C9.67909 13.6633 9.76627 13.7119 9.86159 13.7344C9.95692 13.7569 10.0566 13.7524 10.1495 13.7214L12.3869 12.9756C12.4645 12.9497 12.5351 12.9061 12.593 12.8482L12.657 12.7842V16.418ZM11.4743 10.9838L12.2201 11.7295L11.9352 12.0144L10.8166 12.3873L11.1895 11.2686L11.4743 10.9838ZM12.9657 10.9836L12.22 10.2378L14.7549 7.70073L15.5007 8.4465L12.9657 10.9836ZM16.7898 7.15634L16.2462 7.70041L15.5004 6.95464L16.0442 6.41039C16.2499 6.20476 16.5844 6.2048 16.79 6.41039C16.9955 6.61605 16.9966 6.94944 16.7898 7.15634Z" fill="#131313"/>
<path d="M10.02 5.27344H2.63721C2.34597 5.27344 2.10986 5.50955 2.10986 5.80078C2.10986 6.09202 2.34597 6.32812 2.63721 6.32812H10.02C10.3113 6.32812 10.5474 6.09202 10.5474 5.80078C10.5474 5.50955 10.3113 5.27344 10.02 5.27344ZM7.91064 7.38281H2.63721C2.34597 7.38281 2.10986 7.61892 2.10986 7.91016C2.10986 8.20139 2.34597 8.4375 2.63721 8.4375H7.91064C8.20188 8.4375 8.43799 8.20139 8.43799 7.91016C8.43799 7.61892 8.20188 7.38281 7.91064 7.38281ZM7.91064 9.49219H2.63721C2.34597 9.49219 2.10986 9.7283 2.10986 10.0195C2.10986 10.3108 2.34597 10.5469 2.63721 10.5469H7.91064C8.20188 10.5469 8.43799 10.3108 8.43799 10.0195C8.43799 9.7283 8.20188 9.49219 7.91064 9.49219ZM7.91064 11.6016H2.63721C2.34597 11.6016 2.10986 11.8377 2.10986 12.1289C2.10986 12.4201 2.34597 12.6562 2.63721 12.6562H7.91064C8.20188 12.6562 8.43799 12.4201 8.43799 12.1289C8.43799 11.8377 8.20188 11.6016 7.91064 11.6016ZM10.02 14.8359H6.85596C6.56472 14.8359 6.32861 15.072 6.32861 15.3633C6.32861 15.6545 6.56472 15.8906 6.85596 15.8906H10.02C10.3113 15.8906 10.5474 15.6545 10.5474 15.3633C10.5474 15.072 10.3113 14.8359 10.02 14.8359Z" fill="#131313"/>
</g>
<defs>
<clipPath id="clip0_576_2290">
<rect width="18" height="18" fill="white"/>
</clipPath>
</defs>
</svg>
