<svg width="28" height="28" viewBox="0 0 28 28" fill="none" xmlns="http://www.w3.org/2000/svg">
<path d="M7.4375 15.875H1.8125C1.56386 15.875 1.3254 15.9738 1.14959 16.1496C0.973772 16.3254 0.875 16.5639 0.875 16.8125V26.1875C0.875 26.4361 0.973772 26.6746 1.14959 26.8504C1.3254 27.0262 1.56386 27.125 1.8125 27.125H7.4375C7.68614 27.125 7.9246 27.0262 8.10041 26.8504C8.27623 26.6746 8.375 26.4361 8.375 26.1875V16.8125C8.375 16.5639 8.27623 16.3254 8.10041 16.1496C7.9246 15.9738 7.68614 15.875 7.4375 15.875ZM6.5 25.25H2.75V17.75H6.5V25.25ZM26.1875 8.375H20.5625C20.3139 8.375 20.0754 8.47377 19.8996 8.64959C19.7238 8.8254 19.625 9.06386 19.625 9.3125V26.1875C19.625 26.4361 19.7238 26.6746 19.8996 26.8504C20.0754 27.0262 20.3139 27.125 20.5625 27.125H26.1875C26.4361 27.125 26.6746 27.0262 26.8504 26.8504C27.0262 26.6746 27.125 26.4361 27.125 26.1875V9.3125C27.125 9.06386 27.0262 8.8254 26.8504 8.64959C26.6746 8.47377 26.4361 8.375 26.1875 8.375ZM25.25 25.25H21.5V10.25H25.25V25.25ZM16.8125 0.875H11.1875C10.9389 0.875 10.7004 0.973772 10.5246 1.14959C10.3488 1.3254 10.25 1.56386 10.25 1.8125V26.1875C10.25 26.4361 10.3488 26.6746 10.5246 26.8504C10.7004 27.0262 10.9389 27.125 11.1875 27.125H16.8125C17.0611 27.125 17.2996 27.0262 17.4754 26.8504C17.6512 26.6746 17.75 26.4361 17.75 26.1875V1.8125C17.75 1.56386 17.6512 1.3254 17.4754 1.14959C17.2996 0.973772 17.0611 0.875 16.8125 0.875ZM15.875 25.25H12.125V2.75H15.875V25.25Z" fill="#131313"/>
</svg>
