<svg width="19" height="19" viewBox="0 0 19 19" fill="none" xmlns="http://www.w3.org/2000/svg">
<path d="M5.10635 7.71876C5.10635 7.48126 5.26468 7.32292 5.50218 7.32292H11.0043C11.2418 7.32292 11.4001 7.48126 11.4001 7.71876C11.4001 7.95626 11.2418 8.11459 11.0043 8.11459H5.50218C5.30426 8.11459 5.10635 7.95626 5.10635 7.71876ZM5.50218 10.6875H11.0043C11.2418 10.6875 11.4001 10.5292 11.4001 10.2917C11.4001 10.0542 11.2418 9.89584 11.0043 9.89584H5.50218C5.26468 9.89584 5.10635 10.0542 5.10635 10.2917C5.10635 10.5292 5.30426 10.6875 5.50218 10.6875ZM5.50218 13.2208H8.74801C8.98552 13.2208 9.14385 13.0625 9.14385 12.825C9.14385 12.5875 8.98552 12.4292 8.74801 12.4292H5.50218C5.26468 12.4292 5.10635 12.5875 5.10635 12.825C5.10635 13.0625 5.30426 13.2208 5.50218 13.2208ZM15.873 14.7646L13.3397 17.2979C13.2605 17.3771 13.1418 17.4167 13.0626 17.4167C12.9834 17.4167 12.8647 17.3771 12.7855 17.2979C12.6272 17.1396 12.6272 16.9021 12.7855 16.7438L15.3188 14.2104C16.1897 13.3396 16.1897 12.5875 15.398 11.7958C14.6459 11.0438 13.8147 11.0833 12.9834 11.9146L12.073 12.825L9.9751 14.9229C9.69801 15.2 9.5001 15.8333 9.9751 16.3083C10.4897 16.8229 11.123 16.5854 11.3605 16.3083L12.0334 15.6354L14.0126 13.6563C14.1313 13.5375 14.3688 13.3 14.3688 13.1417C14.3688 13.1021 14.3688 13.0625 14.2501 12.9438C14.1709 12.8646 14.0522 12.7854 13.973 12.7854C13.8147 12.7854 13.5772 12.9833 13.4584 13.1417L11.6772 14.9229C11.5188 15.0813 11.2813 15.0813 11.123 14.9229C10.9647 14.7646 10.9647 14.5271 11.123 14.3688L12.8647 12.5875C13.0626 12.3896 13.4188 11.9938 13.9334 11.9938C14.2105 11.9938 14.4876 12.1125 14.7647 12.3896C15.0418 12.6667 15.1209 12.9438 15.1209 13.1417C15.1209 13.6563 14.7251 14.0125 14.5272 14.2104L13.2209 15.5167L11.8751 16.8625C11.5584 17.1792 11.0834 17.3771 10.6084 17.3771C10.173 17.3771 9.7376 17.2188 9.38135 16.8625C8.58968 16.0708 8.74801 14.9625 9.38135 14.3292L10.2918 13.4188L12.3897 11.3208C12.7459 10.9646 13.1022 10.7271 13.4584 10.6083V4.98751H11.123C10.8855 4.98751 10.7272 4.82917 10.7272 4.59168V2.41459H3.64176C3.3251 2.41459 3.04801 2.69167 3.04801 3.00834V15.2396C3.04801 15.5563 3.3251 15.8333 3.64176 15.8333H7.63968C7.87718 15.8333 8.03551 15.9917 8.03551 16.2292C8.03551 16.4667 7.87718 16.625 7.63968 16.625H3.64176C2.88968 16.625 2.25635 15.9917 2.25635 15.2396V3.00834C2.25635 2.25626 2.88968 1.62292 3.64176 1.62292H11.4001C11.4397 1.62292 11.4793 1.66251 11.5188 1.70209L14.2501 4.27501C14.2897 4.31459 14.3293 4.35418 14.3293 4.39376V4.43334C14.3293 4.47292 14.3688 4.51251 14.3688 4.55209V10.4104C14.9626 10.4104 15.5168 10.6875 16.0313 11.2021C17.0605 12.3104 17.0209 13.5771 15.873 14.7646ZM11.5584 4.19584H12.9043L12.7855 4.07709L11.5584 2.88959V4.19584Z" fill="#131313"/>
</svg>
