<svg width="28" height="28" viewBox="0 0 28 28" fill="none" xmlns="http://www.w3.org/2000/svg">
<path d="M11.8126 25.8125C11.5806 25.8125 11.358 25.7203 11.1939 25.5562C11.0298 25.3921 10.9376 25.1696 10.9376 24.9375V16.5244L2.82639 7.60375C2.50709 7.25189 2.29679 6.81492 2.221 6.34587C2.14521 5.87681 2.2072 5.39584 2.39944 4.96133C2.59168 4.52682 2.90591 4.15745 3.30399 3.89805C3.70207 3.63865 4.16688 3.50037 4.64202 3.5H23.3583C23.8334 3.50037 24.2982 3.63865 24.6963 3.89805C25.0944 4.15745 25.4086 4.52682 25.6008 4.96133C25.7931 5.39584 25.8551 5.87681 25.7793 6.34587C25.7035 6.81492 25.4932 7.25189 25.1739 7.60375L17.0626 16.5244V21.4375C17.0626 21.5686 17.033 21.698 16.9762 21.8161C16.9194 21.9342 16.8368 22.0381 16.7345 22.12L12.3595 25.62C12.2044 25.7444 12.0115 25.8123 11.8126 25.8125ZM4.64202 5.25C4.50586 5.25034 4.37272 5.29014 4.25871 5.36457C4.1447 5.43901 4.0547 5.54489 3.99962 5.66941C3.94454 5.79393 3.92672 5.93174 3.94833 6.06618C3.96995 6.20061 4.03006 6.3259 4.12139 6.42687L12.4601 15.6144C12.603 15.7715 12.6839 15.9752 12.6876 16.1875V23.1175L15.3126 21V16.1875C15.3121 15.9691 15.3933 15.7585 15.5401 15.5969L23.8789 6.40937C23.9648 6.30794 24.0202 6.18428 24.0388 6.05267C24.0574 5.92106 24.0384 5.78688 23.9839 5.66563C23.9295 5.54437 23.8418 5.441 23.7311 5.36746C23.6204 5.29391 23.4911 5.25319 23.3583 5.25H4.64202Z" fill="#1D1D1B"/>
</svg>
