<svg width="25" height="25" viewBox="0 0 25 25" fill="none" xmlns="http://www.w3.org/2000/svg">
<g clip-path="url(#clip0_211_5846)">
<path d="M21.2891 3.02734H16.9423L16.4617 1.51255L16.4584 1.50239C16.313 1.06467 16.0332 0.68392 15.659 0.414221C15.2848 0.144521 14.8351 -0.000414053 14.3739 9.08172e-07H10.6261C10.1649 -0.000418611 9.71519 0.144516 9.34099 0.414217C8.96679 0.683917 8.68708 1.06467 8.5416 1.50239L8.53833 1.51255L8.05771 3.02734H3.71094C2.49937 3.02734 1.51367 4.01304 1.51367 5.22461V6.68945C1.51367 7.09395 1.8416 7.42188 2.24609 7.42188H3.03657L4.32471 22.9958L4.32524 23.0017C4.42886 24.1409 5.36963 25 6.51348 25H18.4865C19.6304 25 20.5711 24.1409 20.6747 23.0017L20.6752 22.9958L21.9634 7.42188H22.7539C23.1584 7.42188 23.4863 7.09395 23.4863 6.68945V5.22461C23.4863 4.01304 22.5006 3.02734 21.2891 3.02734ZM9.93267 1.96148C9.9818 1.81657 10.0751 1.69072 10.1995 1.60164C10.3239 1.51255 10.4731 1.46471 10.6261 1.46484H14.3739C14.5269 1.46469 14.6761 1.51253 14.8005 1.60162C14.9249 1.69071 15.0182 1.81657 15.0673 1.96148L15.4055 3.02734H9.59453L9.93267 1.96148ZM19.2157 22.8714C19.1994 23.0533 19.1154 23.2224 18.9804 23.3453C18.8453 23.4682 18.6691 23.536 18.4865 23.5352H6.51348C6.33089 23.536 6.15465 23.4682 6.01962 23.3453C5.88459 23.2224 5.8006 23.0533 5.78428 22.8714L4.50645 7.42188H20.4936L19.2157 22.8714ZM22.0215 5.95703H2.97852V5.22461C2.97852 4.82075 3.30708 4.49219 3.71094 4.49219H16.4013C16.4029 4.49219 16.4044 4.49238 16.4061 4.49238C16.4077 4.49238 16.4094 4.49219 16.4111 4.49219H21.2891C21.6929 4.49219 22.0215 4.82075 22.0215 5.22461V5.95703Z" fill="#959595"/>
<path d="M8.10547 8.88672C7.70098 8.88672 7.37305 9.21465 7.37305 9.61914V21.3379C7.37305 21.7424 7.70098 22.0703 8.10547 22.0703C8.50996 22.0703 8.83789 21.7424 8.83789 21.3379V9.61914C8.83789 9.21465 8.50996 8.88672 8.10547 8.88672ZM12.5 8.88672C12.0955 8.88672 11.7676 9.21465 11.7676 9.61914V21.3379C11.7676 21.7424 12.0955 22.0703 12.5 22.0703C12.9045 22.0703 13.2324 21.7424 13.2324 21.3379V9.61914C13.2324 9.21465 12.9045 8.88672 12.5 8.88672ZM16.8945 8.88672C16.49 8.88672 16.1621 9.21465 16.1621 9.61914V21.3379C16.1621 21.7424 16.49 22.0703 16.8945 22.0703C17.299 22.0703 17.627 21.7424 17.627 21.3379V9.61914C17.627 9.21465 17.299 8.88672 16.8945 8.88672Z" fill="#959595"/>
</g>
<defs>
<clipPath id="clip0_211_5846">
<rect width="25" height="25" fill="white"/>
</clipPath>
</defs>
</svg>
