<svg width="20" height="18" viewBox="0 0 20 18" fill="none" xmlns="http://www.w3.org/2000/svg">
<path d="M18.5826 1.38398C17.6375 0.461196 16.3319 0 14.665 0C14.2038 0 13.733 0.0799803 13.2532 0.239863C12.7732 0.399862 12.3267 0.615723 11.9141 0.887289C11.501 1.15878 11.146 1.41373 10.8481 1.65175C10.5517 1.88892 10.2685 2.14228 10 2.41067C9.73143 2.1423 9.44827 1.88894 9.1518 1.65175C8.85408 1.41373 8.4989 1.15893 8.08587 0.887289C7.67291 0.615606 7.22645 0.399902 6.74657 0.239863C6.26673 0.0800194 5.79603 0 5.33476 0C3.66803 0 2.36231 0.461313 1.4174 1.38398C0.472493 2.30657 0 3.58625 0 5.22315C0 5.72168 0.087564 6.23526 0.26234 6.76326C0.437116 7.29154 0.636285 7.74175 0.859456 8.1137C1.08259 8.48561 1.33562 8.8483 1.61837 9.20176C1.90112 9.55518 2.10775 9.79876 2.23781 9.93268C2.36798 10.0666 2.47032 10.1634 2.54471 10.223L9.5089 16.9418C9.64286 17.0757 9.80654 17.1429 9.99996 17.1429C10.1934 17.1429 10.3572 17.0757 10.4911 16.9418L17.4442 10.2451C19.1481 8.54151 20 6.8674 20 5.22299C20 3.58598 19.5275 2.30641 18.5826 1.38398ZM16.4732 9.19617L10 15.4349L3.51577 9.18491C2.12436 7.79386 1.42878 6.47301 1.42878 5.22299C1.42878 4.62041 1.50876 4.08834 1.66864 3.62714C1.82864 3.16587 2.03324 2.79931 2.28249 2.52774C2.53177 2.2561 2.83492 2.03492 3.19206 1.86367C3.54939 1.69256 3.89906 1.57721 4.24126 1.51771C4.58347 1.45829 4.94799 1.42854 5.33495 1.42854C5.7218 1.42854 6.13855 1.5233 6.58497 1.71309C7.03131 1.9028 7.44239 2.1409 7.81809 2.42732C8.19388 2.71394 8.51567 2.98175 8.78364 3.23091C9.05146 3.48032 9.27459 3.70896 9.45319 3.91731C9.58704 4.08107 9.76948 4.16292 10 4.16292C10.2307 4.16292 10.4129 4.08107 10.5469 3.91731C10.7255 3.70896 10.9488 3.4802 11.2166 3.23091C11.4844 2.98175 11.8063 2.71405 12.1819 2.42732C12.5577 2.1409 12.9688 1.9028 13.4153 1.71309C13.8616 1.52334 14.2785 1.42854 14.6654 1.42854C15.0522 1.42854 15.4167 1.45829 15.759 1.51771C16.1013 1.57717 16.451 1.69256 16.8082 1.86367C17.1654 2.03488 17.4685 2.25622 17.7177 2.52774C17.967 2.79931 18.1717 3.16587 18.3317 3.62714C18.4914 4.08834 18.5714 4.62041 18.5714 5.22299C18.5713 6.47301 17.872 7.79753 16.4732 9.19617Z" fill="#131313"/>
</svg>
