<svg width="21" height="21" viewBox="0 0 21 21" fill="none" xmlns="http://www.w3.org/2000/svg">
<g clip-path="url(#clip0_129_390)">
<path d="M20.475 9.13398C20.4744 9.13352 20.4739 9.13287 20.4734 9.13238L11.9071 0.566426C11.5419 0.201059 11.0564 0 10.5401 0C10.0237 0 9.53824 0.201059 9.17295 0.566385L0.611063 9.12803C0.608192 9.1309 0.605156 9.13393 0.602449 9.13685C-0.147398 9.89096 -0.146086 11.1145 0.606141 11.8668C0.94977 12.2106 1.40348 12.4096 1.88882 12.4306C1.90867 12.4325 1.92857 12.4334 1.94858 12.4334H2.28983V18.7374C2.28983 19.985 3.30497 21 4.55258 21H7.90401C8.24382 21 8.51925 20.7244 8.51925 20.3847V15.4424C8.51925 14.8731 8.98243 14.4101 9.55169 14.4101H11.5284C12.0977 14.4101 12.5607 14.8732 12.5607 15.4424V20.3848C12.5607 20.7244 12.8361 21 13.176 21H16.5274C17.7752 21 18.7901 19.985 18.7901 18.7374V12.4335H19.1067C19.623 12.4335 20.1084 12.2324 20.4739 11.8669C21.2269 11.1136 21.2272 9.88776 20.475 9.13393L20.475 9.13398ZM19.6037 10.997C19.5386 11.0625 19.4612 11.1144 19.3759 11.1498C19.2906 11.1852 19.1991 11.2033 19.1067 11.203H18.1749C17.835 11.203 17.5596 11.4784 17.5596 11.8183V18.7374C17.5596 19.3065 17.0966 19.7695 16.5273 19.7695H13.7912V15.4424C13.7912 14.1948 12.7762 13.1796 11.5284 13.1796H9.55173C8.30395 13.1796 7.28882 14.1948 7.28882 15.4424V19.7695H4.55266C3.98353 19.7695 3.52034 19.3065 3.52034 18.7374V11.8182C3.52034 11.4784 3.24492 11.203 2.90511 11.203H1.98927C1.97967 11.2023 1.97006 11.2019 1.96044 11.2017C1.77714 11.1985 1.60524 11.1258 1.47645 10.9968C1.20247 10.7228 1.20247 10.277 1.47645 10.0028C1.47657 10.0028 1.47657 10.0026 1.47674 10.0025L1.47723 10.002L10.0432 1.43637C10.1083 1.37087 10.1857 1.31894 10.271 1.28359C10.3563 1.24825 10.4478 1.23019 10.5401 1.23047C10.7277 1.23047 10.9041 1.30352 11.0369 1.43637L19.601 10.0003L19.605 10.0041C19.8775 10.2786 19.877 10.7235 19.6037 10.997Z" fill="black"/>
</g>
<defs>
<clipPath id="clip0_129_390">
<rect width="21" height="21" fill="white"/>
</clipPath>
</defs>
</svg>
