<svg width="25" height="25" viewBox="0 0 25 25" fill="none" xmlns="http://www.w3.org/2000/svg">
<circle cx="12.5" cy="12.5" r="12.5" fill="white"/>
<g clip-path="url(#clip0_587_1462)">
<path d="M15.832 19.0809H9.97382C7.75626 19.0809 5.95215 17.377 5.95215 15.2827V9.7157C5.95215 7.6213 7.75626 5.91742 9.97382 5.91742H15.832C18.0495 5.91742 19.8536 7.6213 19.8536 9.7157V15.2827C19.8536 17.377 18.0495 19.0809 15.832 19.0809ZM9.97382 7.47831C8.66754 7.47831 7.60483 8.48199 7.60483 9.7157V15.2827C7.60483 16.5164 8.66754 17.52 9.97382 17.52H15.832C17.1382 17.52 18.201 16.5164 18.201 15.2827V9.7157C18.201 8.48199 17.1382 7.47831 15.832 7.47831H9.97382Z" fill="#112222"/>
<path d="M12.9028 15.7559C11.0014 15.7559 9.45459 14.295 9.45459 12.4993C9.45459 10.7036 11.0015 9.24268 12.9028 9.24268C14.8041 9.24268 16.351 10.7036 16.351 12.4993C16.351 14.295 14.8042 15.7559 12.9028 15.7559ZM12.9028 10.7653C11.8904 10.7653 11.0667 11.5431 11.0667 12.4993C11.0667 13.4555 11.8904 14.2334 12.9028 14.2334C13.9152 14.2334 14.7389 13.4555 14.7389 12.4993C14.7389 11.5431 13.9152 10.7653 12.9028 10.7653Z" fill="#112222"/>
<path d="M16.432 9.74109C16.0964 9.74109 15.8232 9.48317 15.8232 9.16614C15.8232 8.8491 16.0964 8.59119 16.432 8.59119C16.7677 8.59119 17.0408 8.8491 17.0408 9.16614C17.0408 9.48317 16.7677 9.74109 16.432 9.74109Z" fill="#112222"/>
</g>
<defs>
<clipPath id="clip0_587_1462">
<rect width="14.5161" height="13.7097" fill="white" transform="translate(5.64502 5.64453)"/>
</clipPath>
</defs>
</svg>
