<svg width="22" height="22" viewBox="0 0 22 22" fill="none" xmlns="http://www.w3.org/2000/svg">
<path d="M11 1.375C6.64056 1.375 3.09375 4.88744 3.09375 9.20494C3.09375 12.3441 7.04825 17.2597 9.40637 19.9114C9.60675 20.1359 9.8523 20.3155 10.1269 20.4385C10.4016 20.5615 10.6991 20.6251 11 20.6251C11.3009 20.6251 11.5984 20.5615 11.8731 20.4385C12.1477 20.3155 12.3933 20.1359 12.5936 19.9114C14.9511 17.2611 18.9062 12.3447 18.9062 9.20494C18.9062 4.88744 15.3594 1.375 11 1.375ZM11 5.81075C12.8954 5.81075 14.4375 7.33356 14.4375 9.20494C14.4375 11.0763 12.8954 12.5991 11 12.5991C9.10456 12.5991 7.5625 11.0763 7.5625 9.20494C7.5625 7.33356 9.10456 5.81075 11 5.81075Z" fill="#FE5C3A"/>
</svg>
