<svg width="18" height="18" viewBox="0 0 18 18" fill="none" xmlns="http://www.w3.org/2000/svg">
<path d="M14.4401 12.3699C14.2501 12.3699 14.0601 12.2999 13.9101 12.1499C13.7706 12.0088 13.6924 11.8184 13.6924 11.6199C13.6924 11.4215 13.7706 11.2311 13.9101 11.0899L15.9401 9.05994L13.9101 7.02994C13.6201 6.73994 13.6201 6.25994 13.9101 5.96994C14.2001 5.67994 14.6801 5.67994 14.9701 5.96994L17.5301 8.52994C17.8201 8.81994 17.8201 9.29994 17.5301 9.58994L14.9701 12.1499C14.8201 12.2999 14.6301 12.3699 14.4401 12.3699Z" fill="#131313"/>
<path d="M16.93 9.81006H6.76001C6.35001 9.81006 6.01001 9.47006 6.01001 9.06006C6.01001 8.65006 6.35001 8.31006 6.76001 8.31006H16.93C17.34 8.31006 17.68 8.65006 17.68 9.06006C17.68 9.47006 17.34 9.81006 16.93 9.81006Z" fill="#131313"/>
<path d="M8.76001 17.75C3.61001 17.75 0.0100098 14.15 0.0100098 9C0.0100098 3.85 3.61001 0.25 8.76001 0.25C9.17001 0.25 9.51001 0.59 9.51001 1C9.51001 1.41 9.17001 1.75 8.76001 1.75C4.49001 1.75 1.51001 4.73 1.51001 9C1.51001 13.27 4.49001 16.25 8.76001 16.25C9.17001 16.25 9.51001 16.59 9.51001 17C9.51001 17.41 9.17001 17.75 8.76001 17.75Z" fill="#131313"/>
</svg>
