<svg width="26" height="26" viewBox="0 0 26 26" fill="none" xmlns="http://www.w3.org/2000/svg">
<path d="M22.5119 21.3631L17.6621 16.5132C18.8518 15.0653 19.5014 13.249 19.5 11.375C19.5 6.89488 15.8551 3.25 11.375 3.25C6.89488 3.25 3.25 6.89488 3.25 11.375C3.25 15.8551 6.89488 19.5 11.375 19.5C13.3234 19.5 15.1125 18.8094 16.5132 17.6621L21.3631 22.5119C21.4385 22.5874 21.5281 22.6472 21.6266 22.688C21.7252 22.7289 21.8308 22.7499 21.9375 22.7499C22.0442 22.7499 22.1498 22.7289 22.2484 22.688C22.3469 22.6472 22.4365 22.5874 22.5119 22.5119C22.5874 22.4365 22.6472 22.3469 22.688 22.2484C22.7289 22.1498 22.7499 22.0442 22.7499 21.9375C22.7499 21.8308 22.7289 21.7252 22.688 21.6266C22.6472 21.5281 22.5874 21.4385 22.5119 21.3631ZM4.875 11.375C4.875 7.79106 7.79106 4.875 11.375 4.875C14.9589 4.875 17.875 7.79106 17.875 11.375C17.875 14.9589 14.9589 17.875 11.375 17.875C7.79106 17.875 4.875 14.9589 4.875 11.375Z" fill="#131313"/>
</svg>
