<svg width="17" height="17" viewBox="0 0 17 17" fill="none" xmlns="http://www.w3.org/2000/svg">
<path d="M14.7193 13.9682L11.5483 10.7971C12.3262 9.85038 12.7509 8.66281 12.75 7.4375C12.75 4.50819 10.3668 2.125 7.4375 2.125C4.50819 2.125 2.125 4.50819 2.125 7.4375C2.125 10.3668 4.50819 12.75 7.4375 12.75C8.71144 12.75 9.88125 12.2984 10.7971 11.5483L13.9682 14.7193C14.0175 14.7687 14.076 14.8078 14.1405 14.8345C14.2049 14.8612 14.274 14.8749 14.3438 14.8749C14.4135 14.8749 14.4826 14.8612 14.547 14.8345C14.6115 14.8078 14.67 14.7687 14.7193 14.7193C14.7687 14.67 14.8078 14.6115 14.8345 14.547C14.8612 14.4826 14.8749 14.4135 14.8749 14.3438C14.8749 14.274 14.8612 14.2049 14.8345 14.1405C14.8078 14.076 14.7687 14.0175 14.7193 13.9682ZM3.1875 7.4375C3.1875 5.09416 5.09416 3.1875 7.4375 3.1875C9.78084 3.1875 11.6875 5.09416 11.6875 7.4375C11.6875 9.78084 9.78084 11.6875 7.4375 11.6875C5.09416 11.6875 3.1875 9.78084 3.1875 7.4375Z" fill="#131313"/>
</svg>
