<svg width="25" height="25" viewBox="0 0 25 25" fill="none" xmlns="http://www.w3.org/2000/svg">
<circle cx="12.5" cy="12.5" r="12.5" fill="white"/>
<g clip-path="url(#clip0_587_1469)">
<path d="M19.3286 8.6628C18.8255 8.09797 17.8966 7.86755 16.1227 7.86755H9.68318C7.86861 7.86755 6.92399 8.11283 6.42278 8.71418C5.93408 9.30051 5.93408 10.1644 5.93408 11.3601V13.639C5.93408 15.9554 6.51388 17.1315 9.68318 17.1315H16.1227C17.6611 17.1315 18.5135 16.9282 19.065 16.4297C19.6306 15.9185 19.8719 15.0839 19.8719 13.639V11.36C19.8719 10.0992 19.8341 9.23014 19.3286 8.6628ZM14.8822 12.8142L11.958 14.2575C11.8927 14.2898 11.8212 14.3058 11.7498 14.3058C11.6689 14.3058 11.5883 14.2853 11.5169 14.2444C11.3823 14.1674 11.3002 14.0297 11.3002 13.8812V11.0037C11.3002 10.8555 11.3821 10.7179 11.5164 10.6408C11.6507 10.5638 11.8177 10.5585 11.9571 10.6269L14.8812 12.0609C15.03 12.1339 15.1234 12.279 15.1236 12.4372C15.1238 12.5956 15.0308 12.7409 14.8822 12.8142Z" fill="#112222"/>
</g>
<defs>
<clipPath id="clip0_587_1469">
<rect width="14.5161" height="13.7097" fill="white" transform="translate(5.64502 5.64453)"/>
</clipPath>
</defs>
</svg>
