<svg width="25" height="25" viewBox="0 0 25 25" fill="none" xmlns="http://www.w3.org/2000/svg">
<circle cx="12.5" cy="12.5" r="12.5" fill="white"/>
<g clip-path="url(#clip0_587_1473)">
<path d="M17.5575 14.2131C18.0969 14.7648 18.6662 15.2838 19.1499 15.8911C19.3636 16.161 19.5659 16.4395 19.7207 16.7527C19.94 17.1979 19.7414 17.6878 19.3603 17.7144L16.9915 17.7133C16.3806 17.7664 15.8932 17.5087 15.4834 17.0711C15.1554 16.7211 14.8517 16.3486 14.5364 15.9869C14.4071 15.839 14.2718 15.6999 14.1101 15.5899C13.7867 15.37 13.506 15.4373 13.3212 15.7907C13.133 16.1501 13.0903 16.548 13.0719 16.9485C13.0465 17.5329 12.8779 17.6865 12.3176 17.7132C11.1201 17.7724 9.98371 17.5826 8.92798 16.9498C7.99725 16.3919 7.2755 15.6043 6.64726 14.7127C5.4241 12.9765 4.48741 11.0688 3.6456 9.1075C3.4561 8.66565 3.59469 8.42845 4.06006 8.42003C4.83284 8.4043 5.60549 8.40544 6.37917 8.41889C6.69324 8.42371 6.90117 8.61242 7.02246 8.92329C7.44056 10.0003 7.95216 11.025 8.59429 11.9747C8.7653 12.2276 8.93965 12.4804 9.188 12.6584C9.46271 12.8555 9.67185 12.7902 9.80109 12.4696C9.88309 12.2663 9.91897 12.0474 9.93746 11.8297C9.99869 11.0806 10.0068 10.3329 9.89939 9.58654C9.83347 9.1207 9.58304 8.81919 9.13931 8.731C8.91289 8.68606 8.9466 8.5978 9.05622 8.46241C9.24661 8.22892 9.42573 8.08356 9.78266 8.08356H12.4598C12.8812 8.17071 12.9748 8.36906 13.0325 8.8133L13.0348 11.9287C13.0302 12.1007 13.1168 12.611 13.4125 12.7249C13.6492 12.8059 13.8052 12.6076 13.9472 12.4504C14.5882 11.7377 15.0456 10.8954 15.4543 10.0232C15.6357 9.63973 15.7916 9.24147 15.9427 8.84355C16.0547 8.54828 16.2304 8.40295 16.5479 8.40943L19.1245 8.41182C19.2009 8.41182 19.2782 8.413 19.3522 8.42627C19.7864 8.50379 19.9054 8.69947 19.7713 9.14361C19.56 9.84047 19.1489 10.4212 18.7469 11.0046C18.3173 11.6274 17.8577 12.229 17.4316 12.8556C17.0401 13.4277 17.0712 13.7162 17.5575 14.2131Z" fill="#112222"/>
</g>
<defs>
<clipPath id="clip0_587_1473">
<rect width="16.9355" height="17.7419" fill="white" transform="translate(3.22559 4.03241)"/>
</clipPath>
</defs>
</svg>
