<svg width="37" height="37" viewBox="0 0 37 37" fill="none" xmlns="http://www.w3.org/2000/svg">
<path fill-rule="evenodd" clip-rule="evenodd" d="M15.4166 1.92725H15.3642C13.2506 1.92725 11.5918 1.92725 10.2598 2.03516C8.90311 2.1477 7.78231 2.37587 6.7679 2.89387C5.09979 3.74377 3.74359 5.09997 2.89369 6.76808C2.37569 7.7825 2.14752 8.90329 2.03652 10.26C1.92706 11.592 1.92706 13.2508 1.92706 15.3644V21.6359C1.92706 23.7495 1.92706 25.4084 2.03498 26.7404C2.14752 28.097 2.37569 29.2178 2.89369 30.2322C3.74359 31.9004 5.09979 33.2566 6.7679 34.1065C7.78231 34.6245 8.90311 34.8526 10.2598 34.9636C11.5918 35.0731 13.2506 35.0731 15.3642 35.0731H24.79C26.105 35.0731 26.9051 35.0731 27.5958 34.9652C29.4449 34.6724 31.1539 33.8017 32.4777 32.4779C33.8015 31.1541 34.6722 29.4451 34.965 27.596C35.0729 26.9053 35.0729 26.1052 35.0729 24.7902V23.1252C35.0729 22.8185 34.9511 22.5244 34.7342 22.3076C34.5174 22.0907 34.2233 21.9689 33.9166 21.9689C33.61 21.9689 33.3159 22.0907 33.0991 22.3076C32.8822 22.5244 32.7604 22.8185 32.7604 23.1252V24.6668C32.7604 26.1437 32.7573 26.7481 32.6802 27.2337C32.4638 28.6004 31.8203 29.8635 30.8418 30.842C29.8633 31.8204 28.6002 32.464 27.2335 32.6804C26.7464 32.7575 26.1436 32.7606 24.6666 32.7606H15.4166C13.2383 32.7606 11.675 32.7606 10.4479 32.6588C9.23456 32.5602 8.4514 32.369 7.81777 32.0468C6.5846 31.4189 5.58188 30.4167 4.95335 29.1839C4.6296 28.5487 4.43998 27.7656 4.34131 26.5523C4.2411 25.3251 4.23956 23.7619 4.23956 21.5835V15.4168C4.23956 13.2385 4.23956 11.6752 4.34131 10.448C4.43998 9.23475 4.63115 8.45158 4.95335 7.81796C5.58162 6.58455 6.58437 5.5818 7.81777 4.95354C8.4514 4.62979 9.23456 4.44016 10.4479 4.3415C11.675 4.24129 13.2383 4.23975 15.4166 4.23975H23.125C23.4316 4.23975 23.7257 4.11793 23.9426 3.90109C24.1594 3.68425 24.2812 3.39015 24.2812 3.0835C24.2812 2.77684 24.1594 2.48274 23.9426 2.2659C23.7257 2.04906 23.4316 1.92725 23.125 1.92725H15.4166ZM33.1921 10.0672C33.3963 9.84806 33.5075 9.55816 33.5022 9.25861C33.4969 8.95906 33.3756 8.67326 33.1637 8.46141C32.9519 8.24957 32.6661 8.12822 32.3665 8.12293C32.067 8.11765 31.7771 8.22884 31.5579 8.43308L18.4476 21.5434L13.0949 16.8598C12.9814 16.7552 12.8482 16.6744 12.703 16.622C12.5578 16.5697 12.4036 16.547 12.2495 16.5552C12.0954 16.5635 11.9445 16.6024 11.8057 16.6699C11.6669 16.7374 11.543 16.8319 11.4413 16.948C11.3396 17.0641 11.2622 17.1994 11.2136 17.3459C11.165 17.4923 11.1463 17.6471 11.1584 17.8009C11.1706 17.9548 11.2134 18.1046 11.2844 18.2417C11.3554 18.3787 11.4531 18.5001 11.5717 18.5988L17.7384 23.9947C17.9591 24.1878 18.245 24.2898 18.5381 24.28C18.8312 24.2703 19.1096 24.1496 19.3171 23.9422L33.1921 10.0672Z" fill="#FF6000"/>
</svg>
