<svg width="29" height="25" viewBox="0 0 29 25" fill="none" xmlns="http://www.w3.org/2000/svg">
<path d="M26.2812 0.71875H2.71875C1.21936 0.71875 0 1.93811 0 3.4375V21.5625C0 23.0619 1.21936 24.2812 2.71875 24.2812H26.2812C27.7806 24.2812 29 23.0619 29 21.5625V3.4375C29 1.93811 27.7806 0.71875 26.2812 0.71875ZM2.71875 2.53125H26.2812C26.7806 2.53125 27.1875 2.93816 27.1875 3.4375V15.7498L21.4845 10.0468C21.3145 9.87689 21.0841 9.78144 20.8438 9.78144C20.6034 9.78144 20.373 9.87689 20.203 10.0468L11.7812 18.4686L8.79697 15.4843C8.62702 15.3144 8.39655 15.2189 8.15625 15.2189C7.91595 15.2189 7.68548 15.3144 7.51553 15.4843L1.8125 21.1873V3.4375C1.8125 2.93816 2.21895 2.53125 2.71875 2.53125ZM3.09394 22.4688L8.15625 17.4064L10.4998 19.75L7.78106 22.4688H3.09394ZM26.2812 22.4688H10.3439L20.8438 11.9689L27.1875 18.3127V21.5625C27.1875 22.0623 26.7806 22.4688 26.2812 22.4688Z" fill="black"/>
<path d="M7.25 12.5C8.74939 12.5 9.96875 11.2806 9.96875 9.78125C9.96875 8.28186 8.74939 7.0625 7.25 7.0625C5.75061 7.0625 4.53125 8.28186 4.53125 9.78125C4.53125 11.2806 5.75061 12.5 7.25 12.5ZM7.25 8.875C7.74934 8.875 8.15625 9.28145 8.15625 9.78125C8.15625 10.281 7.74934 10.6875 7.25 10.6875C6.7502 10.6875 6.34375 10.281 6.34375 9.78125C6.34375 9.28145 6.7502 8.875 7.25 8.875Z" fill="black"/>
</svg>
