<svg width="98" height="98" viewBox="0 0 98 98" fill="none" xmlns="http://www.w3.org/2000/svg">
<g clip-path="url(#clip0_208_5197)">
<path d="M71.2665 97.9998C70.5805 97.9998 69.8782 97.914 69.184 97.7303L6.0434 80.8212C3.96167 80.2434 2.1901 78.8713 1.11019 77.0001C0.0302728 75.129 -0.271602 72.9086 0.269569 70.817L8.23615 41.123C8.38299 40.608 8.72632 40.1713 9.19214 39.907C9.65797 39.6427 10.209 39.5721 10.7264 39.7103C11.2438 39.8485 11.6863 40.1844 11.9583 40.6458C12.2303 41.1071 12.3102 41.6569 12.1807 42.1765L4.21815 71.8624C3.65057 74.0265 4.94907 76.2805 7.11732 76.8808L70.2334 93.7817C71.2736 94.0585 72.3811 93.9113 73.3128 93.3723C74.2445 92.8334 74.9242 91.9467 75.2028 90.907L78.3919 79.0899C78.4616 78.8309 78.5817 78.5881 78.7452 78.3755C78.9087 78.1629 79.1125 77.9846 79.3449 77.8507C79.5773 77.7169 79.8339 77.6301 80.0998 77.5954C80.3658 77.5607 80.636 77.5787 80.895 77.6484C81.154 77.7182 81.3967 77.8382 81.6093 78.0017C81.8219 78.1652 82.0003 78.369 82.1341 78.6015C82.268 78.8339 82.3547 79.0904 82.3894 79.3564C82.4241 79.6223 82.4061 79.8925 82.3364 80.1515L79.1514 91.9524C78.6871 93.6883 77.6624 95.2223 76.2365 96.3158C74.8106 97.4094 73.0634 98.0014 71.2665 97.9998Z" fill="white"/>
<path d="M89.8335 73.4998H24.5002C19.9962 73.4998 16.3335 69.8371 16.3335 65.3332V16.3332C16.3335 11.8293 19.9962 8.1665 24.5002 8.1665H89.8335C94.3374 8.1665 98.0002 11.8293 98.0002 16.3332V65.3332C98.0002 69.8371 94.3374 73.4998 89.8335 73.4998ZM24.5002 12.2498C22.2502 12.2498 20.4168 14.0833 20.4168 16.3332V65.3332C20.4168 67.5831 22.2502 69.4165 24.5002 69.4165H89.8335C92.0834 69.4165 93.9168 67.5831 93.9168 65.3332V16.3332C93.9168 14.0833 92.0834 12.2498 89.8335 12.2498H24.5002Z" fill="white"/>
<path d="M36.75 36.7498C32.2461 36.7498 28.5834 33.0871 28.5834 28.5832C28.5834 24.0793 32.2461 20.4165 36.75 20.4165C41.2539 20.4165 44.9167 24.0793 44.9167 28.5832C44.9167 33.0871 41.2539 36.7498 36.75 36.7498ZM36.75 24.4998C34.5001 24.4998 32.6667 26.3333 32.6667 28.5832C32.6667 30.8331 34.5001 32.6665 36.75 32.6665C38.9999 32.6665 40.8334 30.8331 40.8334 28.5832C40.8334 26.3333 38.9999 24.4998 36.75 24.4998ZM18.6609 69.1307C18.2574 69.1306 17.8629 69.0109 17.5274 68.7868C17.1919 68.5628 16.9302 68.2443 16.7756 67.8716C16.6209 67.4989 16.5801 67.0888 16.6584 66.6929C16.7367 66.2971 16.9305 65.9333 17.2154 65.6476L36.5009 46.362C38.8121 44.0508 42.8505 44.0508 45.1617 46.362L50.9029 52.1032L66.7952 33.034C67.3657 32.3499 68.0784 31.7982 68.8837 31.4174C69.689 31.0366 70.5676 30.8358 71.4584 30.829H71.5033C72.3867 30.8285 73.2597 31.0191 74.0625 31.3878C74.8653 31.7564 75.5788 32.2943 76.1542 32.9646L97.51 57.8811C97.688 58.0841 97.824 58.3204 97.91 58.5763C97.9961 58.8322 98.0305 59.1026 98.0114 59.3719C97.9922 59.6412 97.9198 59.904 97.7984 60.1452C97.677 60.3863 97.509 60.601 97.3041 60.7768C97.0991 60.9525 96.8614 61.0859 96.6046 61.1692C96.3477 61.2524 96.077 61.284 95.8079 61.2619C95.5388 61.2398 95.2768 61.1646 95.037 61.0405C94.7971 60.9165 94.5843 60.7462 94.4108 60.5393L73.055 35.6228C72.8638 35.3984 72.6258 35.2185 72.3578 35.0958C72.0897 34.9731 71.7981 34.9104 71.5033 34.9123C71.2054 34.9203 70.9124 34.9897 70.6426 35.1162C70.3727 35.2426 70.132 35.4235 69.9353 35.6473L52.6097 56.4356C52.428 56.6539 52.2026 56.8317 51.948 56.9576C51.6934 57.0835 51.4153 57.1547 51.1315 57.1665C50.8477 57.1842 50.5634 57.1401 50.2984 57.0371C50.0333 56.9342 49.7937 56.7749 49.5962 56.5703L42.2748 49.2489C41.8849 48.8796 41.3683 48.6737 40.8313 48.6737C40.2943 48.6737 39.7777 48.8796 39.3879 49.2489L20.1023 68.5345C19.9131 68.7239 19.6884 68.874 19.441 68.9763C19.1937 69.0786 18.9285 69.1311 18.6609 69.1307Z" fill="white"/>
</g>
<defs>
<clipPath id="clip0_208_5197">
<rect width="98" height="98" fill="white"/>
</clipPath>
</defs>
</svg>
